<svg version="1.1" id="Layer_1" xmlns="http://www.w3.org/2000/svg" xmlns:xlink="http://www.w3.org/1999/xlink" x="0px" y="0px"
	 width="100%" viewBox="0 0 445 354" enable-background="new 0 0 445 354" xml:space="preserve">
<path fill="none" opacity="1.000000" stroke="#000000" stroke-linecap="round" stroke-linejoin="round" stroke-width="8.000000"
	d="
M251.500000,59.750000 
	C253.001724,61.099613 254.826950,60.470741 256.500031,60.473118 
	C283.333313,60.511219 310.166656,60.498089 337.000000,60.501297 
	C344.000000,60.502136 344.000000,60.509460 344.000000,67.500000 
	C344.000000,90.166664 344.005615,112.833336 343.996002,135.500000 
	C343.993622,141.052643 343.595459,141.487381 338.000000,141.490326 
	C302.000000,141.509247 266.000000,141.509338 230.000000,141.490295 
	C224.356796,141.487320 224.008728,141.100464 224.004059,135.500000 
	C223.991959,121.000008 224.000000,106.500000 224.000000,92.000000 
"/>
<path fill="none" opacity="1.000000" stroke="#000000" stroke-linecap="round" stroke-linejoin="round" stroke-width="8.000000"
	d="
M185.000000,131.000000 
	C187.166672,144.333328 188.989746,157.734589 191.607498,170.978760 
	C193.745087,181.793579 194.960022,192.749985 197.361725,203.530807 
	C199.220932,211.876526 199.833328,220.500000 201.000000,229.000000 
"/>
<path fill="none" opacity="1.000000" stroke="#000000" stroke-linecap="round" stroke-linejoin="round" stroke-width="8.000000"
	d="
M114.000000,232.000000 
	C112.391701,240.741348 114.336853,249.357483 115.103706,257.990784 
	C115.445999,261.844299 115.379837,265.665771 115.484055,269.500427 
	C115.638931,275.198975 116.863327,276.484375 122.500008,276.496399 
	C129.499969,276.511353 136.502487,276.388855 143.498993,276.545349 
	C147.177109,276.627625 149.067368,275.133362 148.447983,271.508881 
	C147.450470,265.671722 151.767746,259.730438 148.000000,254.000000 
	C152.409286,249.305908 149.396774,243.219437 151.003098,238.000946 
	C151.697418,235.745270 151.652908,233.500000 150.840881,230.989090 
	C145.715012,229.968796 140.335434,230.575790 134.999725,230.536362 
	C127.167442,230.478500 119.333336,230.666687 111.500000,230.750015 
"/>
<path fill="none" opacity="1.000000" stroke="#000000" stroke-linecap="round" stroke-linejoin="round" stroke-width="8.000000"
	d="
M307.000000,226.500000 
	C298.000000,226.500000 288.979034,226.870697 280.007721,226.363434 
	C274.466064,226.050095 268.998871,226.714737 263.500366,226.490921 
	C259.349060,226.321945 259.482178,229.137863 259.482178,232.000000 
	C259.482178,234.862137 259.348572,237.598526 263.500458,237.527374 
	C269.665314,237.421722 275.866974,237.096191 281.991150,237.606216 
	C289.029266,238.192352 296.003723,237.311951 302.998749,237.538315 
	C308.102539,237.703445 308.571655,236.297333 308.536743,231.999695 
	C308.433807,219.333862 308.190186,206.655579 308.643250,194.005127 
	C308.841309,188.474625 308.402161,183.001144 308.472443,177.499649 
	C308.531281,172.896835 306.069427,170.164154 301.498810,170.047043 
	C294.503387,169.867798 287.496613,169.867798 280.501190,170.047043 
	C275.930573,170.164154 273.518219,172.895386 273.510376,177.500015 
	C273.483398,193.333298 273.500000,209.166672 273.500000,225.000000 
"/>
<path fill="none" opacity="1.000000" stroke="#000000" stroke-linecap="round" stroke-linejoin="round" stroke-width="8.000000"
	d="
M272.000000,187.500000 
	C257.500000,187.500000 242.999908,187.476349 228.500153,187.535706 
	C227.010773,187.541794 225.394562,186.884430 224.000000,188.000000 
"/>
<path fill="none" opacity="1.000000" stroke="#000000" stroke-linecap="round" stroke-linejoin="round" stroke-width="8.000000"
	d="
M179.500000,247.000000 
	C184.470749,248.044388 189.504974,247.498444 194.499481,247.448196 
	C203.999390,247.352615 213.516235,248.091812 223.000000,247.000000 
"/>
<path fill="none" opacity="1.000000" stroke="#000000" stroke-linecap="round" stroke-linejoin="round" stroke-width="8.000000"
	d="
M344.000000,188.000000 
	C332.680908,186.865295 321.331207,187.812195 310.000000,187.500000 
"/>
<path fill="none" opacity="1.000000" stroke="#000000" stroke-linecap="round" stroke-linejoin="round" stroke-width="8.000000"
	d="
M201.500000,229.500000 
	C205.890610,231.310165 210.504776,230.479370 214.997803,230.389801 
	C217.743744,230.335068 219.817993,231.196335 220.387009,233.527573 
	C221.365280,237.535431 223.283035,241.290985 223.520325,245.498856 
	C223.734085,249.289810 226.421295,252.225174 227.136917,255.973862 
	C228.079910,260.913544 230.157196,265.624969 231.453415,270.512360 
	C232.621857,274.918030 231.425583,276.697418 227.005127,276.418762 
	C216.674210,275.767578 206.340912,276.533600 195.975311,275.910889 
	C189.858490,275.543396 183.335800,276.294952 176.998901,276.457367 
	C170.056870,276.635284 168.959839,275.388092 171.076279,269.025360 
	C173.470642,261.827209 175.255310,254.458054 178.180145,247.368057 
	C179.776688,243.497955 180.238281,238.778671 181.463745,234.489639 
	C182.296738,231.574173 183.753922,230.329132 187.002151,230.396729 
	C191.494736,230.490234 196.109390,231.310165 200.500000,229.500000 
"/>
<path fill="none" opacity="1.000000" stroke="#000000" stroke-linecap="round" stroke-linejoin="round" stroke-width="8.000000"
	d="
M309.000000,266.000000 
	C302.210693,263.569214 295.048767,262.747833 287.998444,262.690582 
	C281.338989,262.636475 274.671082,264.204865 267.997711,264.980225 
	C265.511902,265.269073 263.000000,265.333313 260.500000,265.499969 
"/>
<path fill="none" opacity="1.000000" stroke="#000000" stroke-linecap="round" stroke-linejoin="round" stroke-width="9.000000"
	d="
M291.000000,239.500000 
	C291.000000,247.166672 291.000000,254.833328 291.000000,262.500000 
"/>
<path fill="none" opacity="1.000000" stroke="#000000" stroke-linecap="round" stroke-linejoin="round" stroke-width="8.000000"
	d="
M127.500000,243.500000 
	C133.755554,255.187027 136.895935,255.397064 147.500000,254.000000 
"/>
</svg>