<svg version="1.1" id="Layer_1" xmlns="http://www.w3.org/2000/svg" x="0px" y="0px"
	 width="100%" viewBox="32 -2 180 229" xml:space="preserve">
<path fill="none" opacity="1.000000" stroke="currentColor" stroke-linecap="round" stroke-linejoin="round" stroke-width="6"
	d="
M87.250000,166.000000 
	C87.166664,165.916672 87.001938,165.771210 87.011459,165.758743 
	C93.608696,157.113312 102.365532,154.124115 113.005196,155.458542 
	C124.172638,156.859207 134.328278,151.732605 145.019806,150.132324 
	C160.202682,147.859818 167.465729,135.925858 176.505066,126.004608 
	C178.053253,124.305382 178.043823,122.702629 176.509659,120.991341 
	C174.358917,118.592270 171.237137,116.592644 168.579117,117.691383 
	C161.652069,120.554825 154.549194,123.511497 149.526947,129.522522 
	C147.251404,132.246078 144.627548,133.590652 140.999435,133.547928 
	C129.834320,133.416382 118.666664,133.500000 107.500000,133.500000 
"/>
<path fill="none" opacity="1.000000" stroke="currentColor" stroke-linecap="round" stroke-linejoin="round" stroke-width="6.000000"
	d="
M151.500000,126.000000 
	C149.089615,119.450439 144.030624,117.312874 137.499527,117.481911 
	C133.668777,117.581062 129.831879,117.432892 126.000336,117.515450 
	C119.962074,117.645531 114.281815,116.928452 108.430595,114.680679 
	C94.280731,109.244911 82.924805,112.929016 74.677361,126.110970 
	C69.224030,134.827057 62.921360,142.546494 55.495464,149.495148 
	C55.365032,149.617203 55.166664,149.666672 55.000000,149.750000 
	C55.083332,149.833328 55.166664,149.916672 55.250000,150.000000 
"/>
<path fill="none" opacity="1.000000" stroke="currentColor" stroke-linecap="round" stroke-linejoin="round" stroke-width="6.000000"
	d="
M114.250000,65.000000 
	C118.551773,58.021027 125.990585,56.050423 133.036880,54.691223 
	C147.072906,51.983738 160.874023,55.034763 174.493317,58.526043 
	C175.409698,58.760952 176.230423,59.368992 177.483215,59.998131 
	C170.384827,74.661430 160.434265,86.373932 144.429794,90.206841 
	C134.208252,92.654793 123.471939,91.968742 114.913124,83.588730 
	C112.748611,81.469437 110.923897,79.638725 111.000000,76.500000 
"/>
<path fill="none" opacity="1.000000" stroke="currentColor" stroke-linecap="round" stroke-linejoin="round" stroke-width="6.000000"
	d="
M145.000000,71.000000 
	C127.376511,77.149818 109.866470,77.343765 92.500000,70.000000 
"/>
</svg>