<?xml version="1.0" encoding="iso-8859-1"?>
<!-- Uploaded to: SVG Repo, www.svgrepo.com, Generator: SVG Repo Mixer Tools -->
<svg height="800px" width="800px" version="1.1" id="Layer_1" xmlns="http://www.w3.org/2000/svg" xmlns:xlink="http://www.w3.org/1999/xlink" 
	 viewBox="0 0 504.34 504.34" xml:space="preserve">
<g transform="translate(1 1)">
	<path style="fill:#50DD8E;" d="M362.093,208.94L362.093,208.94v-42.667c0,0-1.707-40.96,25.6-68.267s68.267-25.6,68.267-25.6
		h42.667v42.667c0,0,1.707,40.96-25.6,68.267c-27.307,27.307-68.267,25.6-68.267,25.6H362.093z M327.96,140.673L327.96,140.673
		h-42.667c0,0-40.96,1.707-68.267-25.6s-25.6-68.267-25.6-68.267V4.14h42.667c0,0,40.96-1.707,68.267,25.6s25.6,68.267,25.6,68.267
		V140.673z"/>
	<path style="fill:#FFD0A1;" d="M362.093,396.673l98.133-47.787c11.947-6.827,28.16-2.56,34.987,9.387
		c6.827,11.947,2.56,28.16-9.387,34.987l-115.2,71.68c0,0-25.6,17.067-85.333,17.067c-51.2,0-128-42.667-128-42.667
		s-17.067-8.533-51.2-8.533H71.96V311.34h102.4c25.6,0,68.267,51.2,93.867,51.2h51.2c17.067,0,25.6,8.533,25.6,8.533
		S356.973,378.753,362.093,396.673"/>
	<path style="fill:#AAB1BA;" d="M29.293,452.14c0-2.56-1.707-4.267-4.267-4.267s-4.267,1.707-4.267,4.267
		c0,2.56,1.707,4.267,4.267,4.267S29.293,454.7,29.293,452.14L29.293,452.14z M71.96,430.807v51.2
		c0,9.387-7.68,17.067-17.067,17.067h-51.2V277.207h51.2c9.387,0,17.067,7.68,17.067,17.067v17.067V430.807z"/>
</g>
<path style="fill:#51565F;" d="M55.893,504.34h-51.2c-2.56,0-4.267-1.707-4.267-4.267s1.707-4.267,4.267-4.267h51.2
	c6.827,0,12.8-5.973,12.8-12.8V295.273c0-6.827-5.973-12.8-12.8-12.8h-51.2c-2.56,0-4.267-1.707-4.267-4.267
	c0-2.56,1.707-4.267,4.267-4.267h51.2c11.947,0,21.333,9.387,21.333,21.333v187.733C77.227,494.953,67.84,504.34,55.893,504.34z
	 M286.293,487.273c-52.053,0-127.147-41.813-129.707-43.52l0,0c0,0-17.067-7.68-49.493-7.68c-2.56,0-4.267-1.707-4.267-4.267
	c0-2.56,1.707-4.267,4.267-4.267c34.987,0,52.053,8.533,52.907,9.387c0.853,0.853,76.8,41.813,126.293,41.813
	c57.173,0,82.773-16.213,82.773-16.213l115.2-71.68c10.24-5.973,13.653-18.773,7.68-29.013c-2.56-5.12-7.68-8.533-12.8-10.24
	c-5.12-1.707-11.093-0.853-16.213,1.707L364.8,401.087c-17.92,9.387-34.987,9.387-69.973,9.387c-34.133,0-83.627-8.533-86.187-8.533
	s-4.267-2.56-3.413-5.12c0-2.56,2.56-4.267,5.12-3.413c0.853,0,51.2,8.533,84.48,8.533s50.347,0,66.56-7.68l98.133-47.787
	c6.827-4.267,14.507-5.12,22.187-2.56c7.68,1.707,14.507,6.827,17.92,13.653c8.533,14.507,3.413,32.427-11.093,40.96l-115.2,71.68
	C372.48,470.207,346.88,487.273,286.293,487.273z M26.027,461.673c-5.12,0-8.533-3.413-8.533-8.533s3.413-8.533,8.533-8.533
	s8.533,3.413,8.533,8.533S31.147,461.673,26.027,461.673z M346.027,376.34c-0.853,0-2.56,0-3.413-0.853c0,0-7.68-7.68-22.187-7.68
	h-51.2c-14.507,0-31.573-12.8-49.493-26.453c-16.213-11.947-33.28-24.747-44.373-24.747h-68.267c-2.56,0-4.267-1.707-4.267-4.267
	c0-2.56,1.707-4.267,4.267-4.267h68.267c14.507,0,31.573,12.8,49.493,26.453c16.213,11.947,33.28,24.747,44.373,24.747h51.2
	c18.773,0,28.16,9.387,29.013,9.387c1.707,1.707,1.707,4.267,0,5.973C348.587,376.34,346.88,376.34,346.027,376.34z M328.96,316.607
	c-2.56,0-4.267-1.707-4.267-4.267v-166.4h-38.4c-1.707,0-42.667,1.707-70.827-27.307c-28.16-28.16-27.307-69.973-26.453-71.68V4.287
	c0-2.56,1.707-4.267,4.267-4.267h42.667c1.707,0,42.667-1.707,70.827,26.453c28.16,28.16,27.307,69.973,27.307,71.68v41.813l0,0
	c0,0,0,0,0,0.853v171.52C333.227,314.9,331.52,316.607,328.96,316.607z M196.693,9.407v38.4c0,0.853-0.853,39.253,24.747,64.853
	s64.853,24.747,64.853,24.747h32.427l-95.573-95.573c-0.853-0.853-0.853-1.707-0.853-3.413c0-1.707,0-2.56,0.853-3.413
	c1.707-1.707,4.267-1.707,5.973,0l94.72,94.72v-30.72c0-0.853,0.853-39.253-24.747-64.853S234.24,10.26,234.24,10.26L196.693,9.407z
	 M407.467,214.207c-0.853,0-1.707,0-1.707,0h-42.667c-0.853,0-2.56,0-3.413-0.853c-0.853-0.853-0.853-1.707-0.853-3.413l0,0v-42.667
	c0-1.707-1.707-42.667,26.453-71.68c28.16-28.16,69.973-27.307,71.68-26.453h42.667c2.56,0,4.267,1.707,4.267,4.267v42.667
	c0,1.707,1.707,42.667-26.453,71.68C451.84,212.5,416,214.207,407.467,214.207z M373.333,205.673h32.427c0,0-0.853,0,0.853,0
	c6.827,0,40.96-0.853,64-24.747c25.6-25.6,24.747-64.853,24.747-64.853v-38.4h-38.4c-0.853,0-39.253-0.853-64.853,24.747
	s-24.747,64.853-23.893,64.853V199.7l94.72-94.72c1.707-1.707,4.267-1.707,5.973,0c0.853,0.853,0.853,1.707,0.853,3.413
	c0,1.707,0,2.56-0.853,3.413L373.333,205.673z"/>
</svg>