<svg version="1.1" id="Layer_1" xmlns="http://www.w3.org/2000/svg" x="0px" y="0px"
	 width="100%" viewBox="0 0 626 788" enable-background="new 0 0 626 788" xml:space="preserve">
<path fill="none" opacity="1.000000" stroke="none" 
	d="
M412.000000,789.000000 
	C274.666656,789.000000 137.833328,789.000000 1.000000,789.000000 
	C1.000000,526.333313 1.000000,263.666656 1.000000,1.000000 
	C209.666672,1.000000 418.333344,1.000000 627.000000,1.000000 
	C627.000000,263.666656 627.000000,526.333313 627.000000,789.000000 
	C555.500000,789.000000 484.000000,789.000000 412.000000,789.000000 
M173.990555,540.072754 
	C173.990555,540.072754 173.928055,540.042603 174.138275,540.654480 
	C174.754074,540.724243 175.369873,540.793945 176.911621,541.030884 
	C268.455963,541.035706 360.000336,541.041138 451.544678,541.037781 
	C452.704773,541.037720 453.864868,540.924255 455.782227,540.989502 
	C456.462891,540.328064 457.143524,539.666565 457.941345,538.098267 
	C457.643250,533.735901 457.345154,529.373535 457.314697,524.659790 
	C457.225342,524.102234 457.135956,523.544617 457.224396,522.180664 
	C455.479370,521.468323 453.734375,520.755920 451.274841,519.633667 
	C445.654205,519.479614 440.034302,519.280762 434.412689,519.183716 
	C428.434570,519.080383 428.157501,518.758728 428.223419,512.662903 
	C428.261749,509.116547 428.037079,505.567352 428.053986,501.344177 
	C428.011749,500.890503 427.969482,500.436798 428.245392,499.220245 
	C428.504944,497.426636 428.983124,495.633972 428.990509,493.839294 
	C429.072144,474.056519 429.022278,454.273041 429.145172,434.490601 
	C429.180908,428.735077 429.975037,422.975189 429.847900,417.229980 
	C429.674652,409.399628 428.673767,401.586426 428.534058,393.756836 
	C428.356934,383.828369 428.687744,373.890808 428.760345,363.265442 
	C427.853760,363.213531 426.947144,363.161652 425.639923,362.934784 
	C425.639923,362.934784 425.202911,362.945923 424.942017,362.430237 
	C424.560364,362.602173 424.178680,362.774078 423.148804,362.917511 
	C422.500183,362.926971 421.851532,362.936462 420.942017,362.430237 
	C420.560364,362.602142 420.178680,362.774078 419.078583,362.917480 
	C418.120026,362.926971 417.161469,362.936432 415.942017,362.430267 
	C415.560364,362.602173 415.178711,362.774078 413.886261,362.917419 
	C407.658478,362.926910 401.430695,362.936432 394.942017,362.430237 
	C394.560364,362.602142 394.178680,362.774078 392.885529,362.917419 
	C371.912506,362.981537 350.939453,363.045654 329.038147,363.008118 
	C286.824982,363.008118 244.611832,363.008118 202.334427,363.008118 
	C202.178177,363.834564 202.014984,364.294983 202.014862,364.755493 
	C202.002014,414.169220 201.995865,463.582977 202.040848,512.996643 
	C202.041718,513.956970 202.652054,514.916687 203.351318,516.118103 
	C203.351318,516.118103 203.794464,516.082947 203.885361,516.898438 
	C204.138855,520.288452 201.744354,519.988403 199.572296,519.988953 
	C191.459686,519.990906 183.347076,519.989746 175.317673,519.989746 
	C174.592758,526.317261 173.866348,532.657776 172.983551,539.547363 
	C173.299423,539.734497 173.615295,539.921570 173.990555,540.072754 
M328.021240,216.978455 
	C328.021240,216.978455 328.104370,216.935623 327.877930,216.347260 
	C326.939941,215.529938 326.001984,214.712616 325.021240,213.978455 
	C325.021240,213.978455 325.104370,213.935623 324.877930,213.347275 
	C323.939941,212.529953 323.001953,211.712631 322.021240,210.978455 
	C322.021240,210.978455 322.104370,210.935623 321.877930,210.347244 
	C320.939972,209.529922 320.001984,208.712601 319.020416,207.978546 
	C319.020416,207.978546 319.103729,207.935074 318.810364,207.268036 
	C315.261017,203.059784 312.280670,205.313568 309.390289,208.127731 
	C301.912384,215.408447 294.442719,222.697662 286.990082,230.004257 
	C279.539368,237.309006 272.113281,244.638931 264.265747,251.982452 
	C263.984375,252.137939 263.879730,252.372330 263.285217,252.979248 
	C262.752625,253.636322 262.220062,254.293411 261.273010,254.977707 
	C260.988068,255.132980 260.881012,255.368942 260.285217,255.979263 
	C259.752563,256.636414 259.219879,257.293549 258.272827,257.977783 
	C257.988037,258.133087 257.881012,258.369019 257.285217,258.979248 
	C256.752563,259.636383 256.219879,260.293549 255.272736,260.977875 
	C254.987915,261.133240 254.880875,261.369232 254.264328,261.978821 
	C252.738632,263.636108 251.212936,265.293396 249.272736,266.977875 
	C248.987915,267.133240 248.880875,267.369232 248.285049,267.979309 
	C247.752441,268.636444 247.219833,269.293579 246.272736,269.977875 
	C245.987915,270.133240 245.880875,270.369232 245.285034,270.979309 
	C244.752426,271.636444 244.219833,272.293549 243.272736,272.977875 
	C242.987915,273.133240 242.880875,273.369232 242.285034,273.979309 
	C241.752426,274.636414 241.219818,275.293549 240.272736,275.977875 
	C239.987915,276.133240 239.880875,276.369232 239.285019,276.979309 
	C238.752411,277.636414 238.219818,278.293549 237.272736,278.977875 
	C236.987915,279.133240 236.880875,279.369232 236.285034,279.979309 
	C235.752426,280.636444 235.219833,281.293549 234.272491,281.978058 
	C233.987625,282.133636 233.880478,282.369812 233.284500,282.979370 
	C232.752518,283.636169 232.220535,284.292969 231.273636,284.977295 
	C230.988358,285.132629 230.881012,285.368805 230.285049,285.979309 
	C229.752441,286.636444 229.219833,287.293579 228.272736,287.977875 
	C227.987915,288.133240 227.880875,288.369232 227.285034,288.979309 
	C226.752426,289.636444 226.219833,290.293549 225.272537,290.977997 
	C224.987686,291.133514 224.880569,291.369690 224.355133,291.977478 
	C223.725479,292.714996 223.095825,293.452545 221.890640,294.652740 
	C219.901489,296.742554 217.912338,298.832367 215.219833,300.997772 
	C214.728790,301.647095 214.237747,302.296448 213.311935,303.001312 
	C213.020386,303.166168 212.898529,303.414368 212.268433,303.984009 
	C211.761124,304.637970 211.253830,305.291931 210.311813,306.001404 
	C210.020325,306.166260 209.898499,306.414398 209.268417,306.984009 
	C208.761124,307.637970 208.253830,308.291931 207.311813,309.001404 
	C207.020325,309.166260 206.898499,309.414398 206.268433,309.984009 
	C205.761139,310.637970 205.253845,311.291931 204.311813,312.001404 
	C204.020325,312.166260 203.898499,312.414398 203.268387,312.984009 
	C202.761108,313.637970 202.253830,314.291931 201.311813,315.001404 
	C201.020325,315.166260 200.898499,315.414398 200.268372,315.984009 
	C199.761093,316.637970 199.253815,317.291931 198.313278,318.000305 
	C198.021805,318.163879 197.900543,318.410950 197.258698,318.982544 
	C195.698029,320.698517 194.137360,322.414459 192.273682,324.275909 
	C192.273682,324.275909 192.129333,324.579437 191.592453,324.921783 
	C190.693497,325.926422 189.794540,326.931061 188.978104,327.975037 
	C188.978104,327.975037 188.938248,327.892792 188.238297,327.995361 
	C187.782379,328.649323 187.326462,329.303314 186.404037,330.065674 
	C186.101578,330.248871 185.952560,330.517242 185.256226,330.993622 
	C184.794327,331.648163 184.332443,332.302734 183.404037,333.065674 
	C183.101578,333.248871 182.952560,333.517242 182.256226,333.993622 
	C181.794327,334.648163 181.332428,335.302734 180.404037,336.065674 
	C180.101578,336.248871 179.952560,336.517242 179.238846,336.993530 
	C175.800858,339.969177 172.362869,342.944824 168.229263,346.226532 
	C167.241043,348.567444 166.252808,350.908386 165.158752,353.500000 
	C266.506073,353.500000 366.659943,353.500000 467.499573,353.500000 
	C466.797485,351.948944 466.176788,350.577637 465.167389,348.744476 
	C464.132996,347.794769 463.098602,346.845093 462.021210,345.978516 
	C462.021210,345.978516 462.104401,345.935730 461.877960,345.347290 
	C460.939972,344.529999 460.002014,343.712677 459.021271,342.978424 
	C459.021271,342.978424 459.104401,342.935730 458.877960,342.347290 
	C457.939972,341.529999 457.002014,340.712677 456.021210,339.978485 
	C456.021210,339.978485 456.104340,339.935638 455.896118,339.370636 
	C454.888794,338.443115 453.881470,337.515594 452.725494,336.263916 
	C452.725494,336.263916 452.399078,336.120483 452.056732,335.609222 
	C448.446106,331.981110 444.916931,328.266724 441.196869,324.754517 
	C438.621429,322.322937 435.782745,320.170105 433.021790,317.975037 
	C433.021790,317.975037 433.104370,317.935669 432.855682,317.320221 
	C431.917999,316.836945 430.980316,316.353668 429.934357,315.404022 
	C429.751221,315.101593 429.482910,314.952637 429.006378,314.256378 
	C428.351776,313.794373 427.697205,313.332397 426.934296,312.404022 
	C426.751160,312.101624 426.482849,311.952698 426.006378,311.256378 
	C425.351807,310.794373 424.697205,310.332367 423.934296,309.404022 
	C423.751160,309.101624 423.482849,308.952698 423.006378,308.256378 
	C422.351776,307.794373 421.697205,307.332397 420.807465,306.249115 
	C416.914642,302.485016 413.021820,298.720947 408.879547,294.349030 
	C407.875519,293.423187 406.871521,292.497375 405.720032,291.269806 
	C405.720032,291.269806 405.415863,291.127441 405.054230,290.545715 
	C401.723419,287.661407 398.392578,284.777100 395.021698,281.975098 
	C395.021698,281.975098 395.104279,281.935577 394.848633,281.311646 
	C388.256744,274.847198 381.664856,268.382751 374.864349,261.331238 
	C373.936127,260.529175 373.007904,259.727112 371.837158,258.299316 
	C368.917999,255.507874 365.998810,252.716431 362.836609,249.298630 
	C357.781128,244.257339 352.794128,239.143982 347.618835,234.228851 
	C346.424316,233.094360 344.585205,232.638596 342.934296,231.404037 
	C342.751099,231.101624 342.482727,230.952606 342.006378,230.256226 
	C341.351837,229.794327 340.697266,229.332443 339.934326,228.404037 
	C339.751129,228.101578 339.482758,227.952560 339.006378,227.256226 
	C338.351837,226.794327 337.697266,226.332428 336.848511,225.294556 
	C335.941956,224.515274 335.035400,223.735992 333.852417,222.314972 
	C332.922302,221.507675 331.992188,220.700378 331.021729,219.975510 
	C331.021729,219.975510 331.104370,219.935608 330.877930,219.347244 
	C329.939941,218.529938 329.001984,217.712616 328.021240,216.978455 
M423.059418,280.566010 
	C423.365631,280.659729 423.671814,280.753448 424.406799,281.008942 
	C424.406799,281.008942 424.863586,281.045532 425.177429,281.718994 
	C427.436584,282.524963 429.695770,283.330963 432.060455,284.601715 
	C432.242371,284.903748 432.509583,285.051270 433.049286,285.550568 
	C433.356018,285.637909 433.662781,285.725250 434.697357,285.954620 
	C439.157532,287.651489 440.356384,292.015228 440.727448,295.671234 
	C441.233337,300.654816 443.573914,300.313721 446.930695,299.722260 
	C446.291718,290.710449 455.579163,282.311951 464.882385,281.430450 
	C466.232361,276.060730 461.506134,275.394989 458.566528,274.123291 
	C452.458588,271.480957 448.854553,267.002930 446.978577,260.248352 
	C446.084259,259.181488 445.266510,257.362183 444.273834,257.261108 
	C443.297089,257.161682 441.789093,258.601318 441.140961,259.726593 
	C439.832214,261.999023 438.948212,264.516113 437.974060,266.974487 
	C437.974060,266.974487 437.931824,266.889465 437.300842,267.159821 
	C434.116425,271.579285 429.032928,272.859772 424.482697,275.082489 
	C423.089325,275.763123 422.154022,277.381561 421.008911,278.570496 
	C421.650452,279.084503 422.291992,279.598480 422.965668,280.030273 
	C422.965668,280.030273 422.883118,280.061523 423.059418,280.566010 
M225.981628,270.559174 
	C228.480682,268.058716 230.704666,265.167023 233.553497,263.164062 
	C236.613358,261.012726 240.116531,258.894531 243.693497,258.253906 
	C246.896713,257.680206 247.839294,256.488678 248.017242,253.955475 
	C243.072617,251.642685 238.442017,248.623947 233.376923,247.393112 
	C229.707672,246.501480 227.939316,244.245544 226.474823,241.785690 
	C223.366226,236.564362 221.001724,230.905151 218.084839,225.560425 
	C217.457169,224.410278 215.651230,223.040359 214.627548,223.210724 
	C213.594269,223.382675 212.599655,225.233032 212.042313,226.541519 
	C210.508606,230.142181 209.874069,234.322372 207.658005,237.386841 
	C204.793060,241.348587 201.105453,244.976501 197.090790,247.768524 
	C193.456757,250.295837 188.907608,251.507324 184.761963,253.299011 
	C184.601929,253.840149 184.441879,254.381287 184.281830,254.922424 
	C185.841583,255.962799 187.297119,257.241028 188.988068,257.981995 
	C191.000259,258.863739 193.851044,258.646606 195.226517,260.019623 
	C200.079971,264.864288 204.672195,270.015289 208.936981,275.388641 
	C211.564606,278.699310 213.417328,282.625061 215.935028,286.800446 
	C219.376389,281.104248 222.408707,276.085052 225.981628,270.559174 
M422.054413,247.456848 
	C423.407471,246.967758 424.924957,246.717987 426.072357,245.929611 
	C427.537811,244.922699 428.704559,243.481079 430.000061,242.226791 
	C428.555237,241.145111 427.194885,239.917633 425.644012,239.018982 
	C423.747253,237.919922 421.309082,237.506714 419.773865,236.078171 
	C414.867920,231.513107 409.939697,226.944839 407.588470,220.270386 
	C406.752808,217.898209 404.903900,215.753845 403.085419,213.938339 
	C402.562134,213.415894 399.349579,214.496475 399.364410,214.684891 
	C399.751068,219.591064 395.962891,222.249908 393.709869,225.726242 
	C389.986328,231.471497 385.173401,235.783447 378.610718,238.070480 
	C376.337860,238.862549 374.204620,240.055161 372.007599,241.064789 
	C374.113800,242.726135 376.219055,244.388626 378.327332,246.047333 
	C378.584412,246.249603 378.830963,246.504852 379.127136,246.612213 
	C391.578522,251.126251 396.236816,261.746674 400.053192,273.099731 
	C400.432434,274.227905 401.737457,275.044861 402.612823,276.006256 
	C403.413666,274.973541 404.810669,274.001648 404.923279,272.898651 
	C406.072357,261.641846 412.213684,253.795898 422.054413,247.456848 
M446.982910,202.444458 
	C445.664246,208.093628 441.625946,211.546036 437.030609,214.413177 
	C431.824219,217.661575 431.943848,218.509888 436.368103,222.258484 
	C440.209503,225.513260 444.297211,229.151779 446.442841,233.520950 
	C448.170776,237.039581 449.772369,237.267136 452.692413,236.818481 
	C452.617554,230.115250 459.252563,223.428986 468.548431,221.273254 
	C467.830597,219.491959 467.081604,216.317078 466.481750,216.345001 
	C459.123108,216.687729 458.954559,209.014755 454.665497,206.057907 
	C453.769104,205.439957 453.429810,203.993866 452.872284,202.909576 
	C452.209412,201.620300 451.588104,200.309631 450.948792,199.008224 
	C449.640503,199.884735 448.332245,200.761261 446.982910,202.444458 
z"/>
<path fill="#02030D" opacity="1.000000" stroke="none" 
	d="
M173.139954,538.998230 
	C173.866348,532.657776 174.592758,526.317261 175.317673,519.989746 
	C183.347076,519.989746 191.459686,519.990906 199.572296,519.988953 
	C201.744354,519.988403 204.138855,520.288452 204.171814,516.218262 
	C204.637238,513.411255 204.970306,511.284546 204.972610,509.157501 
	C205.024124,461.454041 205.039276,413.750519 205.520996,366.031555 
	C210.970367,365.739685 215.960022,365.463287 221.421417,365.192627 
	C230.261093,365.202850 238.629044,365.207306 247.327118,365.460602 
	C249.477707,365.803375 251.298141,365.979126 253.118591,365.979340 
	C308.900360,365.985748 364.682098,365.973877 420.463867,365.968140 
	C427.037201,365.967468 427.041504,365.976257 427.042053,372.349884 
	C427.045532,412.978760 427.035034,453.607666 427.086334,494.236481 
	C427.088776,496.152374 427.634521,498.067596 427.927246,499.983124 
	C427.969482,500.436798 428.011749,500.890503 427.721558,501.992798 
	C427.275909,507.404419 426.942017,512.179016 427.190125,516.923096 
	C427.260254,518.264404 429.020660,520.622803 430.024689,520.632812 
	C437.343536,520.706116 444.667206,520.298950 451.989349,520.043579 
	C453.734375,520.755920 455.479370,521.468323 456.904480,522.727478 
	C456.738770,523.853271 456.892944,524.432190 457.047089,525.011169 
	C457.345154,529.373535 457.643250,533.735901 457.704956,538.554688 
	C457.468597,539.011169 457.112946,539.008545 456.637268,539.001526 
	C364.835785,538.995483 273.509979,538.989990 182.184219,539.039490 
	C180.121368,539.040588 178.058838,539.666443 175.651611,540.002380 
	C174.847412,540.016846 174.387726,540.029724 173.928055,540.042603 
	C173.928055,540.042603 173.990555,540.072754 173.904404,539.860107 
	C173.656906,539.363464 173.430801,539.147034 173.139954,538.998230 
M289.830994,410.286743 
	C289.380188,410.187012 288.929352,410.087280 288.392487,410.035858 
	C288.392487,410.035858 288.295105,410.052124 287.668396,409.399872 
	C276.088745,409.300476 264.509064,409.201080 252.153976,409.134277 
	C251.453735,410.643311 250.146271,412.150787 250.142365,413.661652 
	C250.051849,448.707916 250.102737,483.754517 250.154251,519.642944 
	C251.759384,520.106995 253.355072,520.927917 254.971359,520.970703 
	C260.710724,521.122620 266.457092,521.009277 272.500092,520.989136 
	C272.500092,520.989136 272.799438,520.994812 273.538391,521.082886 
	C277.714783,521.054871 281.891205,521.026855 286.836792,520.979797 
	C290.685669,520.594177 292.376373,518.571411 292.030914,514.628601 
	C291.568390,509.350067 291.061188,504.052429 291.045776,498.761627 
	C290.961731,469.937286 291.022858,441.112549 290.992706,411.642517 
	C290.663330,411.437195 290.333954,411.231842 289.986481,411.013275 
	C289.986481,411.013275 289.973541,410.994965 289.830994,410.286743 
M306.000000,518.999512 
	C306.000000,518.999512 306.000854,519.002563 306.045807,519.742126 
	C307.402740,521.324219 316.971100,521.715454 317.988342,520.177124 
	C318.211945,519.838989 318.018555,519.225037 318.011597,518.333069 
	C318.011597,518.333069 318.034119,517.928589 318.598297,517.334106 
	C318.717499,515.522705 318.939789,513.711426 318.940735,511.899994 
	C318.960876,474.152710 318.934570,436.405365 318.993347,398.658173 
	C318.998474,395.373077 319.430298,392.076111 319.843079,388.807281 
	C320.426208,384.189056 318.675079,381.963684 314.122589,381.959686 
	C295.165802,381.943085 276.208954,381.935303 257.252350,381.992889 
	C255.845306,381.997162 254.439926,382.543518 252.348969,382.995941 
	C251.886398,382.943359 251.423828,382.890778 250.366364,382.262756 
	C244.589005,382.453888 238.811630,382.645020 232.173538,382.974182 
	C230.432236,382.922821 228.690933,382.871460 226.539642,382.314087 
	C225.358215,383.210999 224.176788,384.107880 222.996201,385.941528 
	C222.996460,427.067902 222.983353,468.194336 223.039505,509.320618 
	C223.042084,511.215240 223.666077,513.109009 224.027344,515.632874 
	C224.050171,515.841736 224.072983,516.050598 224.211685,517.046936 
	C225.021378,518.045593 225.748032,519.806763 226.655701,519.905579 
	C229.885468,520.257202 233.176849,520.042908 236.662170,520.042908 
	C236.662170,477.829987 236.662170,436.015289 236.662170,394.287842 
	C259.664246,394.287842 282.730713,394.287842 306.007538,394.287842 
	C306.007538,435.380646 306.007538,476.178558 306.008881,517.467407 
	C306.008881,517.467407 306.012512,517.958313 305.659943,518.138000 
	C305.592438,518.249695 305.442169,518.423706 305.471466,518.462585 
	C305.619751,518.659607 305.814667,518.821594 306.000000,518.999512 
M404.999115,429.427673 
	C404.999115,423.965973 404.999115,418.504272 404.999115,412.718231 
	C383.476288,413.230347 362.325256,413.733612 340.689636,414.248444 
	C340.689636,431.949707 340.689636,449.287140 340.689636,466.535522 
	C343.427734,467.093872 345.489166,467.871460 347.553345,467.878723 
	C364.380646,467.938049 381.208496,467.832245 398.036163,467.828278 
	C402.065857,467.827332 403.907898,465.896454 404.014740,461.922424 
	C404.297363,451.413177 404.667297,440.906281 404.999115,429.427673 
M353.501404,506.900299 
	C370.881989,506.900299 388.262543,506.900299 405.455292,506.900299 
	C405.748230,505.276123 405.891113,504.790894 405.916138,504.299622 
	C406.437775,494.052399 406.433624,493.894196 396.230103,493.993927 
	C379.479095,494.157593 362.731232,494.625580 345.980316,494.817963 
	C335.305573,494.940552 335.299347,494.821777 336.117493,505.447418 
	C336.152466,505.901886 336.432312,506.337463 336.623810,506.850800 
	C341.962311,506.850800 347.232513,506.850800 353.501404,506.900299 
z"/>
<path fill="#02030E" opacity="1.000000" stroke="none" 
	d="
M182.956970,333.870850 
	C182.952560,333.517242 183.101578,333.248871 183.977341,332.978577 
	C185.019424,332.217957 185.488205,331.544403 185.957001,330.870850 
	C185.952560,330.517242 186.101578,330.248871 186.975204,329.979767 
	C188.010330,329.226837 188.474289,328.559814 188.938248,327.892792 
	C188.938248,327.892792 188.978104,327.975037 189.333862,327.966736 
	C191.759491,327.739380 193.462662,327.255615 192.129333,324.579437 
	C192.129333,324.579437 192.273682,324.275909 192.714905,324.396973 
	C194.330154,323.692352 195.504211,322.866699 196.998367,322.000763 
	C197.548264,321.632660 197.778061,321.304840 198.006805,320.991821 
	C198.005768,321.006683 197.976440,321.001312 198.334122,321.040833 
	C199.571640,320.146179 200.451462,319.212006 201.663086,318.209351 
	C202.772949,317.185760 203.551041,316.230621 204.654083,315.211334 
	C205.744431,314.208038 206.509827,313.268921 207.591019,312.239410 
	C208.696274,311.209320 209.485748,310.269592 210.591095,309.239502 
	C211.696411,308.209167 212.485840,307.269196 213.609955,306.231812 
	C214.630585,305.082825 215.316513,304.031281 216.001221,302.991669 
	C215.999985,303.003601 215.976501,303.000427 216.320679,303.055206 
	C217.434830,302.431427 218.204803,301.752899 219.121780,300.763123 
	C220.644516,299.236298 222.020248,298.020630 223.649445,296.710388 
	C224.284271,296.007538 224.665634,295.399323 225.019867,294.658722 
	C224.992722,294.526367 224.939270,294.261475 225.308960,294.246704 
	C228.596420,291.278687 231.514191,288.325500 234.752319,285.253448 
	C238.334061,282.151306 241.739197,279.308929 244.829269,276.157623 
	C253.250778,267.569214 261.539185,258.850281 269.970154,250.089325 
	C270.059998,249.995560 270.265106,249.836227 270.567871,249.788544 
	C271.840973,248.907425 272.811371,248.073990 273.891846,247.120926 
	C274.001953,247.001312 274.239349,246.779144 274.504211,246.696838 
	C275.157288,245.813507 275.545471,245.012451 276.099121,243.916611 
	C276.633209,243.371155 277.001831,243.120499 277.557129,242.815109 
	C278.096466,242.609802 278.449036,242.459229 278.950439,241.979401 
	C279.797363,240.743347 280.392181,239.728745 281.209320,238.946289 
	C290.832245,229.731689 300.646423,220.708939 310.038177,211.265656 
	C312.797485,208.491226 315.105377,206.437714 319.103729,207.935074 
	C319.103729,207.935074 319.020416,207.978546 319.033569,208.319885 
	C320.065918,209.419373 321.085144,210.177490 322.104370,210.935623 
	C322.104370,210.935623 322.021240,210.978455 322.033966,211.319855 
	C323.065918,212.419373 324.085144,213.177490 325.104370,213.935623 
	C325.104370,213.935623 325.021240,213.978455 325.033966,214.319855 
	C326.065918,215.419373 327.085144,216.177490 328.104370,216.935623 
	C328.104370,216.935623 328.021240,216.978455 328.033966,217.319839 
	C329.065918,218.419357 330.085144,219.177475 331.104370,219.935608 
	C331.104370,219.935608 331.021729,219.975510 331.034149,220.318909 
	C332.074005,221.427124 333.101410,222.191910 334.128845,222.956711 
	C335.035400,223.735992 335.941956,224.515274 336.978516,225.922592 
	C337.782043,227.019409 338.455597,227.488190 339.129150,227.956985 
	C339.482758,227.952560 339.751129,228.101578 340.021423,228.977325 
	C340.782043,230.019409 341.455597,230.488205 342.129150,230.956985 
	C342.482727,230.952606 342.751099,231.101624 343.008728,231.993500 
	C348.719513,238.375916 354.355927,244.168869 360.020813,250.308105 
	C361.038788,251.436691 362.028320,252.218979 363.007050,253.002899 
	C362.996246,253.004501 362.993683,252.982895 363.108551,253.257904 
	C363.577606,253.695297 363.931793,253.857666 364.430603,254.104218 
	C364.755737,254.328552 364.890656,254.503815 365.039459,255.009033 
	C365.404968,255.538040 365.711060,255.772171 366.005981,256.005737 
	C365.994812,256.005188 365.993683,255.982895 366.108551,256.257904 
	C366.577606,256.695282 366.931793,256.857635 367.430603,257.104156 
	C367.755676,257.328522 367.890625,257.503784 368.039459,258.009033 
	C368.404968,258.538055 368.711029,258.772186 369.006226,259.005066 
	C368.995300,259.003784 368.998627,258.982147 369.010925,259.328674 
	C370.021454,260.450592 371.019653,261.225983 372.007690,262.001892 
	C371.997528,262.002472 371.998627,261.982147 372.011993,262.330994 
	C373.053284,263.459351 374.081238,264.238831 375.398315,265.179047 
	C380.820068,270.414001 385.891174,275.553558 391.142456,280.501892 
	C392.080444,281.385803 393.764648,281.477875 395.104279,281.935577 
	C395.104279,281.935577 395.021698,281.975098 395.055939,282.285645 
	C396.603455,284.440277 397.898987,286.543610 399.694519,288.051544 
	C401.317749,289.414856 403.487244,290.127747 405.415863,291.127441 
	C405.415863,291.127441 405.720032,291.269806 405.595825,291.758423 
	C406.690765,293.150330 407.909882,294.053619 409.128998,294.956879 
	C413.021820,298.720947 416.914642,302.485016 420.957977,306.899811 
	C421.782104,308.019379 422.455750,308.488281 423.129364,308.957184 
	C423.482849,308.952698 423.751160,309.101624 424.021393,309.977264 
	C424.782104,311.019409 425.455750,311.488281 426.129364,311.957184 
	C426.482849,311.952698 426.751160,312.101624 427.021393,312.977264 
	C427.782104,314.019409 428.455719,314.488312 429.129364,314.957184 
	C429.482910,314.952637 429.751221,315.101593 430.030273,315.997070 
	C431.118896,317.038635 432.111633,317.487152 433.104370,317.935669 
	C433.104370,317.935669 433.021790,317.975037 433.060242,318.293427 
	C438.769440,324.532837 444.418549,330.475128 450.166656,336.320068 
	C450.499237,336.658264 451.636383,336.205261 452.399078,336.120483 
	C452.399078,336.120483 452.725494,336.263916 452.600037,336.759949 
	C453.684479,338.149200 454.894409,339.042419 456.104340,339.935638 
	C456.104340,339.935638 456.021210,339.978485 456.033936,340.319763 
	C457.065918,341.419281 458.085175,342.177490 459.104401,342.935730 
	C459.104401,342.935730 459.021271,342.978424 459.033997,343.319702 
	C460.065918,344.419250 461.085175,345.177490 462.104401,345.935730 
	C462.104401,345.935730 462.021210,345.978516 462.026001,346.301880 
	C462.312897,347.739197 462.595032,348.853088 462.848938,350.338745 
	C461.858398,350.970276 460.904510,351.415131 459.932434,351.459167 
	C454.551971,351.702850 449.167053,351.848938 443.491516,352.023376 
	C442.809814,352.015991 442.420288,352.013702 441.921997,351.783020 
	C441.538055,351.368591 441.262817,351.182556 440.519714,350.997864 
	C369.493927,350.999908 298.935974,350.959290 228.378220,351.046204 
	C217.939362,351.059052 207.501221,351.674316 196.759628,351.721527 
	C188.745819,351.289948 181.030869,351.247528 173.328217,350.917633 
	C171.862335,350.854828 170.445145,349.655090 169.003784,348.991150 
	C169.002090,349.002350 168.980362,349.009003 169.329910,348.954590 
	C170.163681,347.923279 170.647919,346.946381 171.415787,345.810730 
	C174.451950,342.724976 177.204468,339.797913 179.957001,336.870850 
	C179.952560,336.517242 180.101578,336.248871 180.977325,335.978577 
	C182.019409,335.217957 182.488190,334.544403 182.956970,333.870850 
M295.024719,271.025330 
	C295.024719,271.025330 295.106628,271.062347 294.340851,271.044128 
	C293.582214,272.063965 292.823578,273.083801 292.024933,274.020874 
	C292.024933,274.020874 292.107330,274.061646 291.406830,274.122223 
	C290.311707,276.764740 289.216583,279.407227 288.020691,282.838013 
	C287.960999,283.892273 287.901306,284.946564 287.122711,286.188263 
	C285.506348,288.654510 284.838165,291.020660 287.998871,293.801300 
	C288.541779,295.587097 288.816467,297.515747 289.677399,299.132172 
	C292.367096,304.182129 294.271271,309.604431 300.905762,311.645721 
	C306.266907,313.295258 310.844788,317.424042 317.045502,316.475067 
	C318.999695,316.176025 320.994812,316.144623 323.738098,315.976105 
	C336.737885,313.397278 341.933044,303.668274 344.733398,292.250977 
	C345.314056,289.883636 347.151276,285.919647 342.974152,284.021454 
	C342.974152,284.021454 342.935303,284.103943 342.970428,283.297333 
	C341.937164,281.212494 340.903900,279.127655 339.404053,276.934357 
	C339.101593,276.751099 338.952515,276.482666 338.972839,275.380096 
	C337.724091,271.348022 335.481415,268.413330 330.979675,268.020782 
	C330.979675,268.020782 330.935516,268.104187 330.958740,267.380890 
	C330.610382,264.873108 329.538086,263.648376 326.292236,265.019318 
	C325.857941,264.960083 325.423615,264.900848 324.719513,264.461609 
	C324.483093,264.245026 324.206696,264.110687 323.971313,264.027252 
	C323.971313,264.027252 323.938812,264.107788 323.834747,263.346375 
	C320.620941,262.566803 317.398193,261.136414 314.195648,261.180267 
	C310.578186,261.229797 306.125793,260.495911 304.024933,265.025543 
	C304.024933,265.025543 304.106720,265.062286 303.314087,265.031097 
	C301.557007,266.063843 299.799896,267.096619 297.934448,268.595795 
	C297.751312,268.898285 297.482941,269.047302 296.451630,269.102783 
	C295.988342,269.770935 295.525024,270.439087 295.024719,271.025330 
z"/>
<path fill="#05060D" opacity="1.000000" stroke="none" 
	d="
M225.711334,270.812500 
	C222.408707,276.085052 219.376389,281.104248 215.935028,286.800446 
	C213.417328,282.625061 211.564606,278.699310 208.936981,275.388641 
	C204.672195,270.015289 200.079971,264.864288 195.226517,260.019623 
	C193.851044,258.646606 191.000259,258.863739 188.988068,257.981995 
	C187.297119,257.241028 185.841583,255.962799 184.281830,254.922424 
	C184.441879,254.381287 184.601929,253.840149 184.761963,253.299011 
	C188.907608,251.507324 193.456757,250.295837 197.090790,247.768524 
	C201.105453,244.976501 204.793060,241.348587 207.658005,237.386841 
	C209.874069,234.322372 210.508606,230.142181 212.042313,226.541519 
	C212.599655,225.233032 213.594269,223.382675 214.627548,223.210724 
	C215.651230,223.040359 217.457169,224.410278 218.084839,225.560425 
	C221.001724,230.905151 223.366226,236.564362 226.474823,241.785690 
	C227.939316,244.245544 229.707672,246.501480 233.376923,247.393112 
	C238.442017,248.623947 243.072617,251.642685 248.017242,253.955475 
	C247.839294,256.488678 246.896713,257.680206 243.693497,258.253906 
	C240.116531,258.894531 236.613358,261.012726 233.553497,263.164062 
	C230.704666,265.167023 228.480682,268.058716 225.711334,270.812500 
z"/>
<path fill="#05060E" opacity="1.000000" stroke="none" 
	d="
M421.762238,247.714935 
	C412.213684,253.795898 406.072357,261.641846 404.923279,272.898651 
	C404.810669,274.001648 403.413666,274.973541 402.612823,276.006256 
	C401.737457,275.044861 400.432434,274.227905 400.053192,273.099731 
	C396.236816,261.746674 391.578522,251.126251 379.127136,246.612213 
	C378.830963,246.504852 378.584412,246.249603 378.327332,246.047333 
	C376.219055,244.388626 374.113800,242.726135 372.007599,241.064804 
	C374.204620,240.055161 376.337860,238.862549 378.610718,238.070480 
	C385.173401,235.783447 389.986328,231.471497 393.709869,225.726242 
	C395.962891,222.249908 399.751068,219.591064 399.364410,214.684891 
	C399.349579,214.496475 402.562134,213.415894 403.085419,213.938339 
	C404.903900,215.753845 406.752808,217.898209 407.588470,220.270386 
	C409.939697,226.944839 414.867920,231.513107 419.773865,236.078171 
	C421.309082,237.506714 423.747253,237.919922 425.644012,239.018982 
	C427.194885,239.917633 428.555237,241.145111 430.000061,242.226807 
	C428.704559,243.481079 427.537811,244.922699 426.072357,245.929611 
	C424.924957,246.717987 423.407471,246.967758 421.762238,247.714935 
z"/>
<path fill="#27292F" opacity="1.000000" stroke="none" 
	d="
M428.086304,499.601685 
	C427.634521,498.067596 427.088776,496.152374 427.086334,494.236481 
	C427.035034,453.607666 427.045532,412.978760 427.042053,372.349884 
	C427.041504,365.976257 427.037201,365.967468 420.463867,365.968140 
	C364.682098,365.973877 308.900360,365.985748 253.118591,365.979340 
	C251.298141,365.979126 249.477707,365.803375 247.319916,365.176971 
	C246.965927,364.457092 246.949265,364.269653 247.403595,364.033234 
	C273.498047,363.986267 299.121521,364.005432 324.744873,363.952545 
	C326.485962,363.948975 328.225952,363.403320 329.966431,363.109772 
	C350.939453,363.045654 371.912506,362.981537 393.692993,362.963135 
	C394.734650,362.987885 394.968781,362.966888 395.202911,362.945923 
	C401.430695,362.936432 407.658478,362.926910 414.693359,362.963135 
	C415.734650,362.987885 415.968781,362.966888 416.202911,362.945923 
	C417.161469,362.936432 418.120026,362.926971 419.789551,362.963165 
	C420.734650,362.987885 420.968781,362.966888 421.202911,362.945923 
	C421.851532,362.936462 422.500183,362.926971 423.824646,362.963196 
	C424.734650,362.987885 424.968781,362.966888 425.202911,362.945923 
	C425.202911,362.945923 425.639923,362.934784 426.010742,363.279846 
	C427.187531,363.735657 427.993530,363.846436 428.799530,363.957214 
	C428.687744,373.890808 428.356934,383.828369 428.534058,393.756836 
	C428.673767,401.586426 429.674652,409.399628 429.847900,417.229980 
	C429.975037,422.975189 429.180908,428.735077 429.145172,434.490601 
	C429.022278,454.273041 429.072144,474.056519 428.990509,493.839294 
	C428.983124,495.633972 428.504944,497.426636 428.086304,499.601685 
z"/>
<path fill="#070810" opacity="1.000000" stroke="none" 
	d="
M424.863586,281.045532 
	C424.863586,281.045532 424.406799,281.008942 424.060730,280.735718 
	C423.475372,280.250366 423.198181,280.116699 422.883118,280.061523 
	C422.883118,280.061523 422.965668,280.030273 423.002930,279.702789 
	C426.078003,277.605255 429.388519,276.167297 432.071045,273.964569 
	C434.394531,272.056671 436.005768,269.281372 437.931824,266.889465 
	C437.931824,266.889465 437.974060,266.974487 438.312622,266.963135 
	C439.638641,265.872833 441.200867,264.932526 441.501160,263.687744 
	C442.273651,260.485748 443.838776,259.682739 446.723633,260.988678 
	C448.854553,267.002930 452.458588,271.480957 458.566528,274.123291 
	C461.506134,275.394989 466.232361,276.060730 464.882385,281.430450 
	C455.579163,282.311951 446.291718,290.710449 446.930695,299.722260 
	C443.573914,300.313721 441.233337,300.654816 440.727448,295.671234 
	C440.356384,292.015228 439.157532,287.651489 434.195099,285.697449 
	C433.450012,285.236725 433.173096,285.104706 432.862091,285.044250 
	C432.509583,285.051270 432.242371,284.903748 431.962799,283.998230 
	C429.531281,282.611694 427.197449,281.828613 424.863586,281.045532 
z"/>
<path fill="white" opacity="1.000000" stroke="none" 
	d="
M447.003418,202.041107 
	C448.332245,200.761261 449.640503,199.884735 450.948792,199.008224 
	C451.588104,200.309631 452.209412,201.620300 452.872284,202.909576 
	C453.429810,203.993866 453.769104,205.439957 454.665497,206.057907 
	C458.954559,209.014755 459.123108,216.687729 466.481750,216.345001 
	C467.081604,216.317078 467.830597,219.491959 468.548431,221.273254 
	C459.252563,223.428986 452.617554,230.115250 452.692413,236.818481 
	C449.772369,237.267136 448.170776,237.039581 446.442841,233.520950 
	C444.297211,229.151779 440.209503,225.513260 436.368103,222.258484 
	C431.943848,218.509888 431.824219,217.661575 437.030609,214.413177 
	C441.625946,211.546036 445.664246,208.093628 447.003418,202.041107 
z"/>
<path fill="#000000" opacity="1.000000" stroke="none" 
	d="
M197.062759,352.010834 
	C207.501221,351.674316 217.939362,351.059052 228.378220,351.046204 
	C298.935974,350.959290 369.493927,350.999908 440.628113,351.226654 
	C441.479858,351.639832 441.755280,351.825623 442.030731,352.011383 
	C442.420288,352.013702 442.809814,352.015991 443.803711,352.334106 
	C450.333069,352.761383 456.261871,353.010040 462.179382,352.847382 
	C463.150421,352.820679 464.071747,350.984589 465.160797,349.796906 
	C465.305573,349.609070 465.556061,349.206329 465.556061,349.206329 
	C466.176788,350.577637 466.797485,351.948944 467.499573,353.500000 
	C366.659943,353.500000 266.506073,353.500000 165.158752,353.500000 
	C166.252808,350.908386 167.241043,348.567444 168.603088,346.100891 
	C168.976929,345.975250 169.029419,346.029633 169.017731,346.402161 
	C168.997482,347.519470 168.988922,348.264252 168.980362,349.009003 
	C168.980362,349.009003 169.002090,349.002350 168.630859,349.042389 
	C165.528442,352.560760 168.425476,352.877441 170.670197,352.944061 
	C176.598618,353.120056 182.538177,353.113770 188.468002,352.966431 
	C191.339066,352.895081 194.198212,352.344452 197.062759,352.010834 
z"/>
<path fill="#13151B" opacity="1.000000" stroke="none" 
	d="
M175.996155,540.000854 
	C178.058838,539.666443 180.121368,539.040588 182.184219,539.039490 
	C273.509979,538.989990 364.835785,538.995483 456.470276,539.234497 
	C456.194275,539.937500 455.609619,540.400635 455.024963,540.863708 
	C453.864868,540.924255 452.704773,541.037720 451.544678,541.037781 
	C360.000336,541.041138 268.455963,541.035706 176.459229,540.731689 
	C176.006821,540.432434 175.996155,540.000854 175.996155,540.000854 
z"/>
<path fill="#1D1E24" opacity="1.000000" stroke="none" 
	d="
M205.061295,366.047028 
	C205.039276,413.750519 205.024124,461.454041 204.972610,509.157501 
	C204.970306,511.284546 204.637238,513.411255 204.126358,515.810547 
	C203.794464,516.082947 203.351318,516.118103 203.167297,515.536621 
	C202.984924,467.202301 202.975906,419.449402 203.027420,371.696533 
	C203.029480,369.791290 203.606262,367.886627 204.202240,365.996948 
	C204.679901,366.023834 204.870605,366.035431 205.061295,366.047028 
z"/>
<path fill="#000000" opacity="1.000000" stroke="none" 
	d="
M203.915268,365.981689 
	C203.606262,367.886627 203.029480,369.791290 203.027420,371.696533 
	C202.975906,419.449402 202.984924,467.202301 202.980652,515.415955 
	C202.652054,514.916687 202.041718,513.956970 202.040848,512.996643 
	C201.995865,463.582977 202.002014,414.169220 202.014862,364.755493 
	C202.014984,364.294983 202.178177,363.834564 202.334427,363.008118 
	C244.611832,363.008118 286.824982,363.008118 329.502289,363.058960 
	C328.225952,363.403320 326.485962,363.948975 324.744873,363.952545 
	C299.121521,364.005432 273.498047,363.986267 246.941910,363.995575 
	C237.695404,364.031799 229.381561,364.056671 220.610291,364.031982 
	C214.740326,364.648895 209.327805,365.315277 203.915268,365.981689 
z"/>
<path fill="#000000" opacity="1.000000" stroke="none" 
	d="
M277.370422,242.869843 
	C277.001831,243.120499 276.633209,243.371155 275.862488,244.048874 
	C275.053375,245.243668 274.646362,246.011414 274.239349,246.779144 
	C274.239349,246.779144 274.001953,247.001312 273.614746,247.144379 
	C272.240082,248.137024 271.252594,248.986618 270.265106,249.836227 
	C270.265106,249.836227 270.059998,249.995560 269.673340,250.266449 
	C267.749939,251.010834 266.213165,251.484329 264.676422,251.957825 
	C272.113281,244.638931 279.539368,237.309006 286.990082,230.004257 
	C294.442719,222.697662 301.912384,215.408447 309.390289,208.127731 
	C312.280670,205.313568 315.261017,203.059784 318.957031,207.601562 
	C315.105377,206.437714 312.797485,208.491226 310.038177,211.265656 
	C300.646423,220.708939 290.832245,229.731689 281.209320,238.946289 
	C280.392181,239.728745 279.797363,240.743347 278.744995,241.974609 
	C278.050598,242.489349 277.710510,242.679611 277.370422,242.869843 
z"/>
<path fill="#515359" opacity="1.000000" stroke="none" 
	d="
M264.471069,251.970139 
	C266.213165,251.484329 267.749939,251.010834 269.583496,250.360199 
	C261.539185,258.850281 253.250778,267.569214 244.829269,276.157623 
	C241.739197,279.308929 238.334061,282.151306 234.592712,285.111694 
	C234.112778,285.088806 233.799210,284.799072 233.908325,284.447876 
	C233.995331,283.626648 233.973206,283.156647 233.951080,282.686615 
	C233.880478,282.369812 233.987625,282.133636 234.879211,282.074280 
	C235.974503,281.342285 236.463058,280.514069 236.951599,279.685852 
	C236.880875,279.369232 236.987915,279.133240 237.879333,279.074188 
	C238.974487,278.342285 239.463028,277.514069 239.951599,276.685852 
	C239.880875,276.369232 239.987915,276.133240 240.879333,276.074188 
	C241.974487,275.342285 242.463043,274.514069 242.951599,273.685852 
	C242.880875,273.369232 242.987915,273.133240 243.879333,273.074188 
	C244.974487,272.342285 245.463043,271.514069 245.951599,270.685852 
	C245.880875,270.369232 245.987915,270.133240 246.879364,270.074188 
	C247.974518,269.342285 248.463074,268.514069 248.951614,267.685852 
	C248.880875,267.369232 248.987915,267.133240 249.861008,267.085938 
	C251.950058,265.357941 253.450821,263.521881 254.951599,261.685852 
	C254.880875,261.369232 254.987915,261.133240 255.879364,261.074219 
	C256.974579,260.342224 257.463196,259.513916 257.951782,258.685608 
	C257.881012,258.369019 257.988037,258.133087 258.879395,258.074158 
	C259.974579,257.342224 260.463196,256.513916 260.951782,255.685608 
	C260.881012,255.368942 260.988068,255.132980 261.879578,255.074097 
	C262.974701,254.342178 263.463257,253.513901 263.951782,252.685608 
	C263.879730,252.372330 263.984375,252.137939 264.471069,251.970139 
z"/>
<path fill="#27292F" opacity="1.000000" stroke="none" 
	d="
M451.632080,519.838623 
	C444.667206,520.298950 437.343536,520.706116 430.024689,520.632812 
	C429.020660,520.622803 427.260254,518.264404 427.190125,516.923096 
	C426.942017,512.179016 427.275909,507.404419 427.659973,502.330383 
	C428.037079,505.567352 428.261749,509.116547 428.223419,512.662903 
	C428.157501,518.758728 428.434570,519.080383 434.412689,519.183716 
	C440.034302,519.280762 445.654205,519.479614 451.632080,519.838623 
z"/>
<path fill="#000000" opacity="1.000000" stroke="none" 
	d="
M359.992310,249.961792 
	C354.355927,244.168869 348.719513,238.375916 343.062927,232.226746 
	C344.585205,232.638596 346.424316,233.094360 347.618835,234.228851 
	C352.794128,239.143982 357.781128,244.257339 362.932434,249.636139 
	C363.028229,249.973663 362.977264,250.022766 362.603638,250.023239 
	C361.484131,250.003082 360.738220,249.982437 359.992310,249.961792 
z"/>
<path fill="#000000" opacity="1.000000" stroke="none" 
	d="
M452.227905,335.864868 
	C451.636383,336.205261 450.499237,336.658264 450.166656,336.320068 
	C444.418549,330.475128 438.769440,324.532837 433.080200,318.252258 
	C435.782745,320.170105 438.621429,322.322937 441.196869,324.754517 
	C444.916931,328.266724 448.446106,331.981110 452.227905,335.864868 
z"/>
<path fill="#000000" opacity="1.000000" stroke="none" 
	d="
M394.976440,281.623596 
	C393.764648,281.477875 392.080444,281.385803 391.142456,280.501892 
	C385.891174,275.553558 380.820068,270.414001 375.380646,264.803894 
	C375.041656,263.519623 375.009460,262.771179 375.001343,261.996826 
	C375.025421,261.970856 375.072968,261.918335 375.072968,261.918335 
	C381.664856,268.382751 388.256744,274.847198 394.976440,281.623596 
z"/>
<path fill="#000000" opacity="1.000000" stroke="none" 
	d="
M437.616333,267.024658 
	C436.005768,269.281372 434.394531,272.056671 432.071045,273.964569 
	C429.388519,276.167297 426.078003,277.605255 422.986877,279.743896 
	C422.291992,279.598480 421.650452,279.084503 421.008911,278.570496 
	C422.154022,277.381561 423.089325,275.763123 424.482697,275.082489 
	C429.032928,272.859772 434.116425,271.579285 437.616333,267.024658 
z"/>
<path fill="#515359" opacity="1.000000" stroke="none" 
	d="
M234.272369,285.230530 
	C231.514191,288.325500 228.596420,291.278687 225.335022,293.803314 
	C224.977997,292.811981 224.964600,292.249207 224.951187,291.686462 
	C224.880569,291.369690 224.987686,291.133514 225.879242,291.074249 
	C226.974518,290.342285 227.463074,289.514069 227.951599,288.685852 
	C227.880875,288.369232 227.987915,288.133240 228.879333,288.074188 
	C229.974503,287.342285 230.463043,286.514069 230.951599,285.685852 
	C230.881012,285.368805 230.988358,285.132629 231.828491,285.085999 
	C232.855286,285.062805 233.327240,284.930939 233.799210,284.799072 
	C233.799210,284.799072 234.112778,285.088806 234.272369,285.230530 
z"/>
<path fill="#000000" opacity="1.000000" stroke="none" 
	d="
M405.235046,290.836578 
	C403.487244,290.127747 401.317749,289.414856 399.694519,288.051544 
	C397.898987,286.543610 396.603455,284.440277 395.075989,282.244507 
	C398.392578,284.777100 401.723419,287.661407 405.235046,290.836578 
z"/>
<path fill="#000000" opacity="1.000000" stroke="none" 
	d="
M446.851105,260.618530 
	C443.838776,259.682739 442.273651,260.485748 441.501160,263.687744 
	C441.200867,264.932526 439.638641,265.872833 438.270142,266.942047 
	C438.948212,264.516113 439.832214,261.999023 441.140961,259.726593 
	C441.789093,258.601318 443.297089,257.161682 444.273834,257.261108 
	C445.266510,257.362183 446.084259,259.181488 446.851105,260.618530 
z"/>
<path fill="#000000" opacity="1.000000" stroke="none" 
	d="
M179.597931,336.932190 
	C177.204468,339.797913 174.451950,342.724976 171.063446,345.802338 
	C169.961441,345.978333 169.495438,346.003998 169.029419,346.029633 
	C169.029419,346.029633 168.976929,345.975250 168.950897,345.947876 
	C172.362869,342.944824 175.800858,339.969177 179.597931,336.932190 
z"/>
<path fill="#000000" opacity="1.000000" stroke="none" 
	d="
M367.980011,257.714142 
	C367.890625,257.503784 367.755676,257.328522 367.256012,256.878082 
	C366.622437,256.372864 366.308075,256.177887 365.993683,255.982895 
	C365.993683,255.982895 365.994812,256.005188 365.904358,255.742249 
	C365.535950,255.224274 365.257965,254.969223 364.980011,254.714172 
	C364.890656,254.503815 364.755737,254.328552 364.256012,253.878143 
	C363.622437,253.372910 363.308044,253.177902 362.993683,252.982895 
	C362.993683,252.982895 362.996246,253.004501 363.024078,252.630280 
	C363.027008,251.511627 363.002136,250.767197 362.977264,250.022766 
	C362.977264,250.022766 363.028229,249.973663 363.053955,249.949341 
	C365.998810,252.716431 368.917999,255.507874 371.932678,258.636475 
	C372.028198,258.973663 371.977234,259.022766 371.604279,259.023346 
	C370.487091,259.010010 369.742859,258.996094 368.998627,258.982147 
	C368.998627,258.982147 368.995300,259.003784 368.904602,258.741547 
	C368.535950,258.224274 368.257965,257.969208 367.980011,257.714142 
z"/>
<path fill="#000000" opacity="1.000000" stroke="none" 
	d="
M223.395996,296.804962 
	C222.020248,298.020630 220.644516,299.236298 218.749466,300.732300 
	C217.486084,301.007812 216.742035,301.002991 215.979279,300.979126 
	C215.960571,300.960144 215.923187,300.922180 215.923187,300.922180 
	C217.912338,298.832367 219.901489,296.742554 222.382004,294.708374 
	C223.021179,294.946198 223.168976,295.128326 223.304596,295.560699 
	C223.326950,296.142273 223.361465,296.473602 223.395996,296.804962 
z"/>
<path fill="#000000" opacity="1.000000" stroke="none" 
	d="
M196.678268,322.041016 
	C195.504211,322.866699 194.330154,323.692352 192.866394,324.324219 
	C194.137360,322.414459 195.698029,320.698517 197.694687,319.232971 
	C198.079269,319.989380 198.027847,320.495331 197.976440,321.001312 
	C197.976440,321.001312 198.005768,321.006683 197.727417,321.081604 
	C197.192139,321.451355 196.935211,321.746185 196.678268,322.041016 
z"/>
<path fill="#000000" opacity="1.000000" stroke="none" 
	d="
M425.020508,281.382263 
	C427.197449,281.828613 429.531281,282.611694 431.910034,283.765839 
	C429.695770,283.330963 427.436584,282.524963 425.020508,281.382263 
z"/>
<path fill="#000000" opacity="1.000000" stroke="none" 
	d="
M254.607971,261.832336 
	C253.450821,263.521881 251.950058,265.357941 250.068268,267.072327 
	C251.212936,265.293396 252.738632,263.636108 254.607971,261.832336 
z"/>
<path fill="#3C3E43" opacity="1.000000" stroke="none" 
	d="
M207.275238,312.329803 
	C206.509827,313.268921 205.744431,314.208038 204.537613,315.113403 
	C204.096191,315.079681 203.872894,314.872925 203.941742,314.519684 
	C203.989166,313.692902 203.967773,313.219391 203.946381,312.745850 
	C203.898499,312.414398 204.020325,312.166260 204.881882,312.050659 
	C205.925629,312.024231 206.399292,311.948547 206.976257,311.984680 
	C207.079559,312.096497 207.275238,312.329803 207.275238,312.329803 
z"/>
<path fill="#000000" opacity="1.000000" stroke="none" 
	d="
M462.877136,349.966980 
	C462.595032,348.853088 462.312897,347.739197 462.047485,346.260345 
	C463.098602,346.845093 464.132996,347.794769 465.361725,348.975403 
	C465.556061,349.206329 465.305573,349.609070 464.805542,349.768677 
	C463.829376,349.941193 463.353271,349.954102 462.877136,349.966980 
z"/>
<path fill="#3C3E43" opacity="1.000000" stroke="none" 
	d="
M210.275208,309.329895 
	C209.485748,310.269592 208.696274,311.209320 207.591019,312.239410 
	C207.275238,312.329803 207.079559,312.096497 207.045532,311.632172 
	C206.989792,310.693848 206.968079,310.219849 206.946365,309.745850 
	C206.898499,309.414398 207.020325,309.166260 207.881882,309.050659 
	C208.925629,309.024231 209.399292,308.948547 209.976273,308.984711 
	C210.079575,309.096558 210.275208,309.329895 210.275208,309.329895 
z"/>
<path fill="#3C3E43" opacity="1.000000" stroke="none" 
	d="
M213.275253,306.329254 
	C212.485840,307.269196 211.696411,308.209167 210.591095,309.239502 
	C210.275208,309.329895 210.079575,309.096558 210.045547,308.632202 
	C209.989792,307.693848 209.968079,307.219849 209.946365,306.745850 
	C209.898499,306.414398 210.020325,306.166260 210.881882,306.050659 
	C211.925629,306.024231 212.399292,305.948547 212.976227,305.984619 
	C213.079498,306.096344 213.275253,306.329254 213.275253,306.329254 
z"/>
<path fill="#3C3E43" opacity="1.000000" stroke="none" 
	d="
M204.212646,315.177612 
	C203.551041,316.230621 202.772949,317.185760 201.544403,318.109497 
	C201.093948,318.078125 200.872894,317.872925 200.941711,317.519684 
	C200.989151,316.692902 200.967758,316.219391 200.946350,315.745850 
	C200.898499,315.414398 201.020325,315.166260 201.881866,315.050659 
	C202.925583,315.024261 203.399231,314.948608 203.872894,314.872925 
	C203.872894,314.872925 204.096191,315.079681 204.212646,315.177612 
z"/>
<path fill="#3C3E43" opacity="1.000000" stroke="none" 
	d="
M216.002472,302.979736 
	C215.316513,304.031281 214.630585,305.082825 213.609955,306.231812 
	C213.275253,306.329254 213.079498,306.096344 213.045502,305.632080 
	C212.989792,304.693848 212.968079,304.219849 212.946365,303.745850 
	C212.898529,303.414368 213.020386,303.166168 213.900909,303.052429 
	C214.994080,303.062256 215.498276,303.020996 216.002472,302.979736 
z"/>
<path fill="#3C3E43" opacity="1.000000" stroke="none" 
	d="
M198.334122,321.040833 
	C198.027847,320.495331 198.079269,319.989380 198.040085,319.112488 
	C197.900543,318.410950 198.021805,318.163879 198.882599,318.050110 
	C199.925583,318.024261 200.399231,317.948578 200.872894,317.872925 
	C200.872894,317.872925 201.093948,318.078125 201.212616,318.177979 
	C200.451462,319.212006 199.571640,320.146179 198.334122,321.040833 
z"/>
<path fill="#000000" opacity="1.000000" stroke="none" 
	d="
M409.004272,294.652954 
	C407.909882,294.053619 406.690765,293.150330 405.669556,291.909302 
	C406.871521,292.497375 407.875519,293.423187 409.004272,294.652954 
z"/>
<path fill="#000000" opacity="1.000000" stroke="none" 
	d="
M191.860901,324.750610 
	C193.462662,327.255615 191.759491,327.739380 189.292603,327.947083 
	C189.794540,326.931061 190.693497,325.926422 191.860901,324.750610 
z"/>
<path fill="#000000" opacity="1.000000" stroke="none" 
	d="
M456.000244,339.653137 
	C454.894409,339.042419 453.684479,338.149200 452.674347,336.921997 
	C453.881470,337.515594 454.888794,338.443115 456.000244,339.653137 
z"/>
<path fill="#000000" opacity="1.000000" stroke="none" 
	d="
M333.990631,222.635834 
	C333.101410,222.191910 332.074005,221.427124 331.054321,220.277710 
	C331.992188,220.700378 332.922302,221.507675 333.990631,222.635834 
z"/>
<path fill="#000000" opacity="1.000000" stroke="none" 
	d="
M324.991150,213.641449 
	C324.085144,213.177490 323.065918,212.419373 322.055359,211.278275 
	C323.001953,211.712631 323.939941,212.529953 324.991150,213.641449 
z"/>
<path fill="#000000" opacity="1.000000" stroke="none" 
	d="
M458.991180,342.641510 
	C458.085175,342.177490 457.065918,341.419281 456.055359,340.278198 
	C457.002014,340.712677 457.939972,341.529999 458.991180,342.641510 
z"/>
<path fill="#000000" opacity="1.000000" stroke="none" 
	d="
M461.991180,345.641510 
	C461.085175,345.177490 460.065918,344.419250 459.055359,343.278198 
	C460.002014,343.712677 460.939972,344.529999 461.991180,345.641510 
z"/>
<path fill="#000000" opacity="1.000000" stroke="none" 
	d="
M321.991150,210.641434 
	C321.085144,210.177490 320.065918,209.419373 319.055359,208.278259 
	C320.001984,208.712601 320.939972,209.529922 321.991150,210.641434 
z"/>
<path fill="#000000" opacity="1.000000" stroke="none" 
	d="
M327.991150,216.641449 
	C327.085144,216.177490 326.065918,215.419373 325.055359,214.278259 
	C326.001984,214.712616 326.939941,215.529938 327.991150,216.641449 
z"/>
<path fill="#000000" opacity="1.000000" stroke="none" 
	d="
M330.991150,219.641418 
	C330.085144,219.177475 329.065918,218.419357 328.055359,217.278259 
	C329.001984,217.712616 329.939941,218.529938 330.991150,219.641418 
z"/>
<path fill="#000000" opacity="1.000000" stroke="none" 
	d="
M224.653168,291.831970 
	C224.964600,292.249207 224.977997,292.811981 224.965332,293.818115 
	C224.939270,294.261475 224.992722,294.526367 224.744797,294.791412 
	C224.103500,295.141144 223.710144,295.225830 223.316772,295.310486 
	C223.168976,295.128326 223.021179,294.946198 222.669769,294.477051 
	C223.095825,293.452545 223.725479,292.714996 224.653168,291.831970 
z"/>
<path fill="#000000" opacity="1.000000" stroke="none" 
	d="
M372.053955,258.949341 
	C373.007904,259.727112 373.936127,260.529175 374.968658,261.624786 
	C375.072968,261.918335 375.025421,261.970856 374.628418,261.997437 
	C373.487122,262.010071 372.742889,261.996124 371.998627,261.982178 
	C371.998627,261.982147 371.997528,262.002472 372.024719,261.629272 
	C372.027008,260.511658 372.002136,259.767212 371.977234,259.022766 
	C371.977234,259.022766 372.028198,258.973663 372.053955,258.949341 
z"/>
<path fill="#000000" opacity="1.000000" stroke="none" 
	d="
M432.980042,317.627930 
	C432.111633,317.487152 431.118896,317.038635 430.084412,316.230255 
	C430.980316,316.353668 431.917999,316.836945 432.980042,317.627930 
z"/>
<path fill="#000000" opacity="1.000000" stroke="none" 
	d="
M455.403595,540.926636 
	C455.609619,540.400635 456.194275,539.937500 456.945953,539.241455 
	C457.112946,539.008545 457.468597,539.011169 457.646393,539.008179 
	C457.143524,539.666565 456.462891,540.328064 455.403595,540.926636 
z"/>
<path fill="#27292F" opacity="1.000000" stroke="none" 
	d="
M457.180908,524.835449 
	C456.892944,524.432190 456.738770,523.853271 456.815613,523.130676 
	C457.135956,523.544617 457.225342,524.102234 457.180908,524.835449 
z"/>
<path fill="#000000" opacity="1.000000" stroke="none" 
	d="
M216.001221,302.991669 
	C215.498276,303.020996 214.994080,303.062256 214.118286,303.024658 
	C214.237747,302.296448 214.728790,301.647095 215.571503,300.959961 
	C215.923187,300.922180 215.960571,300.960144 216.038513,301.310913 
	C216.069794,302.107941 216.023148,302.554199 215.976501,303.000427 
	C215.976501,303.000427 215.999985,303.003601 216.001221,302.991669 
z"/>
<path fill="#000000" opacity="1.000000" stroke="none" 
	d="
M182.606598,333.932251 
	C182.488190,334.544403 182.019409,335.217957 181.210571,335.924377 
	C181.332428,335.302734 181.794327,334.648163 182.606598,333.932251 
z"/>
<path fill="#000000" opacity="1.000000" stroke="none" 
	d="
M260.618530,255.832443 
	C260.463196,256.513916 259.974579,257.342224 259.086609,258.060608 
	C259.219879,257.293549 259.752563,256.636414 260.618530,255.832443 
z"/>
<path fill="#000000" opacity="1.000000" stroke="none" 
	d="
M245.618317,270.832581 
	C245.463043,271.514069 244.974487,272.342285 244.086578,273.060608 
	C244.219833,272.293549 244.752426,271.636444 245.618317,270.832581 
z"/>
<path fill="#000000" opacity="1.000000" stroke="none" 
	d="
M242.618317,273.832581 
	C242.463043,274.514069 241.974487,275.342285 241.086578,276.060608 
	C241.219818,275.293549 241.752426,274.636414 242.618317,273.832581 
z"/>
<path fill="#000000" opacity="1.000000" stroke="none" 
	d="
M239.618301,276.832581 
	C239.463028,277.514069 238.974487,278.342285 238.086578,279.060608 
	C238.219818,278.293549 238.752411,277.636414 239.618301,276.832581 
z"/>
<path fill="#000000" opacity="1.000000" stroke="none" 
	d="
M248.618347,267.832581 
	C248.463074,268.514069 247.974518,269.342285 247.086609,270.060608 
	C247.219833,269.293579 247.752441,268.636444 248.618347,267.832581 
z"/>
<path fill="#000000" opacity="1.000000" stroke="none" 
	d="
M236.618317,279.832581 
	C236.463058,280.514069 235.974503,281.342285 235.086578,282.060608 
	C235.219833,281.293549 235.752426,280.636444 236.618317,279.832581 
z"/>
<path fill="#000000" opacity="1.000000" stroke="none" 
	d="
M257.618500,258.832428 
	C257.463196,259.513916 256.974579,260.342224 256.086609,261.060608 
	C256.219879,260.293549 256.752563,259.636383 257.618500,258.832428 
z"/>
<path fill="#000000" opacity="1.000000" stroke="none" 
	d="
M233.908325,284.447876 
	C233.327240,284.930939 232.855286,285.062805 232.035950,285.072205 
	C232.220535,284.292969 232.752518,283.636169 233.617798,282.833008 
	C233.973206,283.156647 233.995331,283.626648 233.908325,284.447876 
z"/>
<path fill="#000000" opacity="1.000000" stroke="none" 
	d="
M230.618317,285.832581 
	C230.463043,286.514069 229.974503,287.342285 229.086594,288.060608 
	C229.219833,287.293579 229.752441,286.636444 230.618317,285.832581 
z"/>
<path fill="#000000" opacity="1.000000" stroke="none" 
	d="
M227.618317,288.832581 
	C227.463074,289.514069 226.974518,290.342285 226.086594,291.060608 
	C226.219833,290.293549 226.752426,289.636444 227.618317,288.832581 
z"/>
<path fill="#000000" opacity="1.000000" stroke="none" 
	d="
M263.618530,252.832428 
	C263.463257,253.513901 262.974701,254.342178 262.086792,255.060486 
	C262.220062,254.293411 262.752625,253.636322 263.618530,252.832428 
z"/>
<path fill="#000000" opacity="1.000000" stroke="none" 
	d="
M206.607391,309.864929 
	C206.968079,310.219849 206.989792,310.693848 206.942245,311.520355 
	C206.399292,311.948547 205.925629,312.024231 205.099243,312.022888 
	C205.253845,311.291931 205.761139,310.637970 206.607391,309.864929 
z"/>
<path fill="#000000" opacity="1.000000" stroke="none" 
	d="
M188.588272,327.944092 
	C188.474289,328.559814 188.010330,329.226837 187.208466,329.925568 
	C187.326462,329.303314 187.782379,328.649323 188.588272,327.944092 
z"/>
<path fill="#000000" opacity="1.000000" stroke="none" 
	d="
M185.606613,330.932251 
	C185.488205,331.544403 185.019424,332.217957 184.210602,332.924377 
	C184.332443,332.302734 184.794327,331.648163 185.606613,330.932251 
z"/>
<path fill="#000000" opacity="1.000000" stroke="none" 
	d="
M200.941711,317.519684 
	C200.399231,317.948578 199.925583,318.024261 199.099228,318.022888 
	C199.253815,317.291931 199.761093,316.637970 200.607361,315.864929 
	C200.967758,316.219391 200.989151,316.692902 200.941711,317.519684 
z"/>
<path fill="#000000" opacity="1.000000" stroke="none" 
	d="
M429.067871,314.606781 
	C428.455719,314.488312 427.782104,314.019409 427.075562,313.210449 
	C427.697205,313.332397 428.351776,313.794373 429.067871,314.606781 
z"/>
<path fill="#000000" opacity="1.000000" stroke="none" 
	d="
M203.941742,314.519684 
	C203.399231,314.948608 202.925583,315.024261 202.099243,315.022888 
	C202.253830,314.291931 202.761108,313.637970 203.607391,312.864929 
	C203.967773,313.219391 203.989166,313.692902 203.941742,314.519684 
z"/>
<path fill="#000000" opacity="1.000000" stroke="none" 
	d="
M426.067871,311.606781 
	C425.455750,311.488281 424.782104,311.019409 424.075562,310.210449 
	C424.697205,310.332367 425.351807,310.794373 426.067871,311.606781 
z"/>
<path fill="#000000" opacity="1.000000" stroke="none" 
	d="
M423.067871,308.606781 
	C422.455750,308.488281 421.782104,308.019379 421.075562,307.210449 
	C421.697205,307.332397 422.351776,307.794373 423.067871,308.606781 
z"/>
<path fill="#000000" opacity="1.000000" stroke="none" 
	d="
M209.607391,306.864929 
	C209.968079,307.219849 209.989792,307.693848 209.942245,308.520355 
	C209.399292,308.948547 208.925629,309.024231 208.099243,309.022888 
	C208.253830,308.291931 208.761124,307.637970 209.607391,306.864929 
z"/>
<path fill="#000000" opacity="1.000000" stroke="none" 
	d="
M339.067749,227.606598 
	C338.455597,227.488190 337.782043,227.019409 337.075623,226.210587 
	C337.697266,226.332428 338.351837,226.794327 339.067749,227.606598 
z"/>
<path fill="#000000" opacity="1.000000" stroke="none" 
	d="
M212.607391,303.864929 
	C212.968079,304.219849 212.989792,304.693848 212.942245,305.520355 
	C212.399292,305.948547 211.925629,306.024231 211.099243,306.022888 
	C211.253830,305.291931 211.761124,304.637970 212.607391,303.864929 
z"/>
<path fill="#000000" opacity="1.000000" stroke="none" 
	d="
M342.067749,230.606598 
	C341.455597,230.488205 340.782043,230.019409 340.075623,229.210587 
	C340.697266,229.332443 341.351837,229.794327 342.067749,230.606598 
z"/>
<path fill="#000000" opacity="1.000000" stroke="none" 
	d="
M428.779938,363.611328 
	C427.993530,363.846436 427.187531,363.735657 426.211060,363.367310 
	C426.947144,363.161652 427.853760,363.213531 428.779938,363.611328 
z"/>
<path fill="#000000" opacity="1.000000" stroke="none" 
	d="
M175.651611,540.002380 
	C175.996155,540.000854 176.006821,540.432434 175.996246,540.648071 
	C175.369873,540.793945 174.754074,540.724243 174.033173,540.348511 
	C174.387726,540.029724 174.847412,540.016846 175.651611,540.002380 
z"/>
<path fill="#000000" opacity="1.000000" stroke="none" 
	d="
M395.072449,362.688080 
	C394.968781,362.966888 394.734650,362.987885 394.148743,362.977417 
	C394.178680,362.774078 394.560364,362.602142 395.072449,362.688080 
z"/>
<path fill="#13151B" opacity="1.000000" stroke="none" 
	d="
M173.061752,539.272827 
	C173.430801,539.147034 173.656906,539.363464 173.874695,539.878052 
	C173.615295,539.921570 173.299423,539.734497 173.061752,539.272827 
z"/>
<path fill="#000000" opacity="1.000000" stroke="none" 
	d="
M416.072449,362.688110 
	C415.968781,362.966888 415.734650,362.987885 415.148743,362.977417 
	C415.178711,362.774078 415.560364,362.602173 416.072449,362.688110 
z"/>
<path fill="#000000" opacity="1.000000" stroke="none" 
	d="
M421.072449,362.688080 
	C420.968781,362.966888 420.734650,362.987885 420.148743,362.977417 
	C420.178680,362.774078 420.560364,362.602142 421.072449,362.688080 
z"/>
<path fill="#000000" opacity="1.000000" stroke="none" 
	d="
M425.072449,362.688080 
	C424.968781,362.966888 424.734650,362.987885 424.148743,362.977417 
	C424.178680,362.774078 424.560364,362.602173 425.072449,362.688080 
z"/>
<path fill="#000000" opacity="1.000000" stroke="none" 
	d="
M432.955688,285.297424 
	C433.173096,285.104706 433.450012,285.236725 433.831177,285.626404 
	C433.662781,285.725250 433.356018,285.637909 432.955688,285.297424 
z"/>
<path fill="#000000" opacity="1.000000" stroke="none" 
	d="
M422.971252,280.313782 
	C423.198181,280.116699 423.475372,280.250366 423.846375,280.654846 
	C423.671814,280.753448 423.365631,280.659729 422.971252,280.313782 
z"/>
<path fill="#000000" opacity="1.000000" stroke="none" 
	d="
M272.799438,520.994812 
	C272.799438,520.994812 272.500092,520.989136 272.041229,520.681030 
	C269.784454,520.252686 267.986145,520.138000 266.188721,520.011108 
	C261.463165,519.677551 256.738037,519.338684 252.010345,518.533081 
	C252.022827,484.496002 252.016846,450.927643 252.095917,417.359528 
	C252.101639,414.927979 252.726074,412.497833 253.526215,410.044128 
	C265.424744,410.031494 276.859924,410.041809 288.295105,410.052124 
	C288.295105,410.052124 288.392487,410.035858 288.642822,410.246307 
	C289.253296,410.636169 289.613434,410.815552 289.973541,410.994965 
	C289.973541,410.994965 289.986481,411.013275 290.051270,411.304871 
	C290.422058,411.826996 290.728058,412.057465 291.034058,412.287933 
	C291.022858,441.112549 290.961731,469.937286 291.045776,498.761627 
	C291.061188,504.052429 291.568390,509.350067 292.030914,514.628601 
	C292.376373,518.571411 290.685669,520.594177 286.149902,520.698181 
	C281.241821,520.609314 277.020630,520.802063 272.799438,520.994812 
z"/>
<path fill="#F6F7F7" opacity="1.000000" stroke="none" 
	d="
M306.007538,516.976501 
	C306.007538,476.178558 306.007538,435.380646 306.007538,394.287842 
	C282.730713,394.287842 259.664246,394.287842 236.662170,394.287842 
	C236.662170,436.015289 236.662170,477.829987 236.662170,520.042908 
	C233.176849,520.042908 229.885468,520.257202 226.655701,519.905579 
	C225.748032,519.806763 225.021378,518.045593 224.421646,516.555054 
	C224.707962,515.713684 224.784317,515.364197 224.943512,514.551575 
	C225.064468,471.413330 225.102570,428.738129 225.429108,385.933472 
	C225.744888,385.198395 225.772263,384.592804 225.993866,383.793671 
	C226.441940,383.340118 226.695786,383.080139 226.949631,382.820129 
	C228.690933,382.871460 230.432236,382.922821 232.952087,383.109253 
	C239.474182,383.108948 245.217712,382.973572 250.961258,382.838196 
	C251.423828,382.890778 251.886398,382.943359 253.011841,383.190796 
	C255.460144,383.550323 257.245056,383.851868 259.031097,383.858643 
	C277.703979,383.929504 296.377106,383.953094 315.068787,384.284119 
	C315.675110,385.083954 316.262756,385.589478 316.882324,386.556702 
	C316.890015,430.316620 316.865753,473.614838 316.503906,517.125549 
	C313.791595,517.929871 311.416901,518.521667 308.743286,519.025696 
	C308.029175,518.940918 307.613983,518.943909 307.104279,518.637573 
	C306.675690,517.877686 306.341614,517.427063 306.007538,516.976501 
z"/>
<path fill="#F7F8F8" opacity="1.000000" stroke="none" 
	d="
M405.000793,429.913086 
	C404.667297,440.906281 404.297363,451.413177 404.014740,461.922424 
	C403.907898,465.896454 402.065857,467.827332 398.036163,467.828278 
	C381.208496,467.832245 364.380646,467.938049 347.553345,467.878723 
	C345.489166,467.871460 343.427734,467.093872 340.689636,466.535522 
	C340.689636,449.287140 340.689636,431.949707 340.689636,414.248444 
	C362.325256,413.733612 383.476288,413.230347 404.999115,412.718231 
	C404.999115,418.504272 404.999115,423.965973 405.000793,429.913086 
z"/>
<path fill="#F1F2F3" opacity="1.000000" stroke="none" 
	d="
M353.002075,506.875549 
	C347.232513,506.850800 341.962311,506.850800 336.623810,506.850800 
	C336.432312,506.337463 336.152466,505.901886 336.117493,505.447418 
	C335.299347,494.821777 335.305573,494.940552 345.980316,494.817963 
	C362.731232,494.625580 379.479095,494.157593 396.230103,493.993927 
	C406.433624,493.894196 406.437775,494.052399 405.916138,504.299622 
	C405.891113,504.790894 405.748230,505.276123 405.455292,506.900299 
	C388.262543,506.900299 370.881989,506.900299 353.002075,506.875549 
z"/>
<path fill="#27292E" opacity="1.000000" stroke="none" 
	d="
M316.841492,516.913086 
	C316.865753,473.614838 316.890015,430.316620 317.150574,386.395630 
	C316.608002,385.178497 315.829071,384.584137 315.050140,383.989777 
	C296.377106,383.953094 277.703979,383.929504 259.031097,383.858643 
	C257.245056,383.851868 255.460144,383.550323 253.354248,383.111755 
	C254.439926,382.543518 255.845306,381.997162 257.252350,381.992889 
	C276.208954,381.935303 295.165802,381.943085 314.122589,381.959686 
	C318.675079,381.963684 320.426208,384.189056 319.843079,388.807281 
	C319.430298,392.076111 318.998474,395.373077 318.993347,398.658173 
	C318.934570,436.405365 318.960876,474.152710 318.940735,511.899994 
	C318.939789,513.711426 318.717499,515.522705 318.185059,517.393555 
	C317.461731,517.273010 317.151611,517.093079 316.841492,516.913086 
z"/>
<path fill="#13151B" opacity="1.000000" stroke="none" 
	d="
M225.140686,386.062958 
	C225.102570,428.738129 225.064468,471.413330 224.728607,514.540894 
	C224.430862,514.993347 224.000626,515.003174 224.000626,515.003174 
	C223.666077,513.109009 223.042084,511.215240 223.039505,509.320618 
	C222.983353,468.194336 222.996460,427.067902 223.291138,385.510712 
	C223.782562,385.107971 223.979034,385.136047 224.266373,385.375000 
	C224.578262,385.810730 224.839417,385.969727 225.140686,386.062958 
z"/>
<path fill="#6A6D72" opacity="1.000000" stroke="none" 
	d="
M253.062866,410.067047 
	C252.726074,412.497833 252.101639,414.927979 252.095917,417.359528 
	C252.016846,450.927643 252.022827,484.496002 251.691940,518.556030 
	C250.959778,518.965515 250.543625,518.883301 250.127472,518.801086 
	C250.102737,483.754517 250.051849,448.707916 250.142365,413.661652 
	C250.146271,412.150787 251.453735,410.643311 252.565613,409.360474 
	C252.977234,409.586700 253.062866,410.067047 253.062866,410.067047 
z"/>
<path fill="#27292E" opacity="1.000000" stroke="none" 
	d="
M250.663818,382.550476 
	C245.217712,382.973572 239.474182,383.108948 233.382446,383.040222 
	C238.811630,382.645020 244.589005,382.453888 250.663818,382.550476 
z"/>
<path fill="#3C3E43" opacity="1.000000" stroke="none" 
	d="
M253.526215,410.044128 
	C253.062866,410.067047 252.977234,409.586700 252.953308,409.344177 
	C264.509064,409.201080 276.088745,409.300476 287.981750,409.726013 
	C276.859924,410.041809 265.424744,410.031494 253.526215,410.044128 
z"/>
<path fill="#515359" opacity="1.000000" stroke="none" 
	d="
M221.067719,364.081543 
	C229.381561,364.056671 237.695404,364.031799 246.470917,364.044586 
	C246.949265,364.269653 246.965927,364.457092 246.989777,364.928131 
	C238.629044,365.207306 230.261093,365.202850 221.448303,364.915466 
	C221.024872,364.448853 221.046295,364.265198 221.067719,364.081543 
z"/>
<path fill="#27292F" opacity="1.000000" stroke="none" 
	d="
M220.610291,364.032013 
	C221.046295,364.265198 221.024872,364.448853 220.976562,364.909698 
	C215.960022,365.463287 210.970367,365.739685 205.520996,366.031555 
	C204.870605,366.035431 204.679901,366.023834 204.202240,365.996948 
	C209.327805,365.315277 214.740326,364.648895 220.610291,364.032013 
z"/>
<path fill="#1D1E24" opacity="1.000000" stroke="none" 
	d="
M250.140869,519.222046 
	C250.543625,518.883301 250.959778,518.965515 251.694336,519.024780 
	C256.738037,519.338684 261.463165,519.677551 266.188721,520.011108 
	C267.986145,520.138000 269.784454,520.252686 271.891602,520.684692 
	C266.457092,521.009277 260.710724,521.122620 254.971359,520.970703 
	C253.355072,520.927917 251.759384,520.106995 250.140869,519.222046 
z"/>
<path fill="#27292E" opacity="1.000000" stroke="none" 
	d="
M307.198792,518.946899 
	C307.613983,518.943909 308.029175,518.940918 309.007935,519.310303 
	C312.386749,519.367859 315.201965,519.053040 318.017212,518.738159 
	C318.018555,519.225037 318.211945,519.838989 317.988342,520.177124 
	C316.971100,521.715454 307.402740,521.324219 306.323486,519.373413 
	C306.800385,518.985474 306.999603,518.966187 307.198792,518.946899 
z"/>
<path fill="#1D1E24" opacity="1.000000" stroke="none" 
	d="
M273.168915,521.038818 
	C277.020630,520.802063 281.241821,520.609314 285.765320,520.707764 
	C281.891205,521.026855 277.714783,521.054871 273.168915,521.038818 
z"/>
<path fill="#000000" opacity="1.000000" stroke="none" 
	d="
M318.014404,518.535645 
	C315.201965,519.053040 312.386749,519.367859 309.306854,519.398071 
	C311.416901,518.521667 313.791595,517.929871 316.503906,517.125549 
	C317.151611,517.093079 317.461731,517.273010 317.902985,517.690796 
	C318.034119,517.928589 318.011597,518.333069 318.014404,518.535645 
z"/>
<path fill="#27292E" opacity="1.000000" stroke="none" 
	d="
M224.175507,385.164124 
	C223.979034,385.136047 223.782562,385.107971 223.290726,385.042358 
	C224.176788,384.107880 225.358215,383.210999 226.744629,382.567108 
	C226.695786,383.080139 226.441940,383.340118 225.791260,383.943665 
	C224.988113,384.579498 224.581818,384.871796 224.175507,385.164124 
z"/>
<path fill="#000000" opacity="1.000000" stroke="none" 
	d="
M307.104279,518.637573 
	C306.999603,518.966187 306.800385,518.985474 306.301025,519.003662 
	C306.000854,519.002563 306.000000,518.999512 305.996979,518.738281 
	C306.000153,518.304077 306.006317,518.131226 306.012512,517.958313 
	C306.012512,517.958313 306.008881,517.467407 306.008209,517.221924 
	C306.341614,517.427063 306.675690,517.877686 307.104279,518.637573 
z"/>
<path fill="#27292E" opacity="1.000000" stroke="none" 
	d="
M305.836243,518.048157 
	C306.006317,518.131226 306.000153,518.304077 305.993591,518.736450 
	C305.814667,518.821594 305.619751,518.659607 305.471466,518.462585 
	C305.442169,518.423706 305.592438,518.249695 305.836243,518.048157 
z"/>
<path fill="#000000" opacity="1.000000" stroke="none" 
	d="
M224.013977,515.317993 
	C224.000626,515.003174 224.430862,514.993347 224.645752,515.004028 
	C224.784317,515.364197 224.707962,515.713684 224.363693,516.161316 
	C224.072983,516.050598 224.050171,515.841736 224.013977,515.317993 
z"/>
<path fill="#3C3E43" opacity="1.000000" stroke="none" 
	d="
M291.013397,411.965210 
	C290.728058,412.057465 290.422058,411.826996 290.060303,411.311523 
	C290.333954,411.231842 290.663330,411.437195 291.013397,411.965210 
z"/>
<path fill="#3C3E43" opacity="1.000000" stroke="none" 
	d="
M289.902283,410.640869 
	C289.613434,410.815552 289.253296,410.636169 288.685852,410.222168 
	C288.929352,410.087280 289.380188,410.187012 289.902283,410.640869 
z"/>
<path fill="#F8F9F9" opacity="1.000000" stroke="none" 
	d="
M324.989319,264.841614 
	C325.423615,264.900848 325.857941,264.960083 326.647369,265.429077 
	C328.313507,266.593964 329.624512,267.349060 330.935516,268.104187 
	C330.935516,268.104187 330.979675,268.020782 331.065125,268.354065 
	C333.752655,271.167908 336.354736,273.648468 338.956848,276.128998 
	C338.952515,276.482666 339.101593,276.751099 339.697174,277.361816 
	C340.971985,279.894196 341.953644,281.999054 342.935303,284.103943 
	C342.935303,284.103943 342.974152,284.021454 342.983002,284.484100 
	C343.627777,296.632629 338.046692,305.221436 329.282471,312.134338 
	C327.360504,313.650299 325.084290,314.717072 322.971191,315.990723 
	C320.994812,316.144623 318.999695,316.176025 317.045502,316.475067 
	C310.844788,317.424042 306.266907,313.295258 300.905762,311.645721 
	C294.271271,309.604431 292.367096,304.182129 289.677399,299.132172 
	C288.816467,297.515747 288.541779,295.587097 287.993469,292.967407 
	C287.939270,290.089264 287.890472,288.045044 287.841675,286.000824 
	C287.901306,284.946564 287.960999,283.892273 288.394714,282.293152 
	C289.881622,279.186066 290.994476,276.623840 292.107330,274.061646 
	C292.107330,274.061646 292.024933,274.020874 292.365173,273.927917 
	C293.505798,272.910797 294.306213,271.986572 295.106628,271.062347 
	C295.106628,271.062347 295.024719,271.025330 295.393219,271.015015 
	C296.217621,270.350708 296.673492,269.696777 297.129364,269.042816 
	C297.482941,269.047302 297.751312,268.898285 298.373383,268.299072 
	C300.577118,267.022308 302.341919,266.042297 304.106720,265.062286 
	C304.106720,265.062286 304.024933,265.025543 304.445587,265.010925 
	C311.107056,262.195312 317.504852,262.763123 323.938812,264.107788 
	C323.938812,264.107788 323.971313,264.027252 324.016907,264.298309 
	C324.371429,264.660126 324.680359,264.750854 324.989319,264.841614 
M330.025726,280.976868 
	C330.025726,280.976868 330.108765,280.936707 330.004944,280.232391 
	C327.401947,274.963287 322.546051,272.839020 317.269196,272.177521 
	C314.561707,271.838074 311.628662,273.297791 308.368500,273.934631 
	C308.368500,273.934631 307.976685,274.109741 307.274048,274.011200 
	C305.795197,275.229370 304.418976,276.606537 302.819794,277.638214 
	C295.821625,282.152802 298.212067,289.117920 298.245483,295.386108 
	C298.250305,296.298492 299.996429,297.201569 300.973175,298.026703 
	C300.973175,298.026703 300.890839,298.062897 300.994110,298.715363 
	C301.662170,299.424683 302.330231,300.134033 303.685913,301.182800 
	C304.122162,301.796783 304.479675,302.864014 305.006683,302.955536 
	C311.166901,304.025604 317.352661,304.948883 323.531647,305.910980 
	C323.265137,305.212402 322.998596,304.513794 322.732056,303.815216 
	C323.915497,302.505493 325.035400,301.130066 326.301239,299.905548 
	C327.438354,298.805573 328.735809,297.871307 330.779541,296.980530 
	C334.227112,292.710815 333.952179,286.516785 330.025726,280.976868 
z"/>
<path fill="#000000" opacity="1.000000" stroke="none" 
	d="
M323.354645,315.983398 
	C325.084290,314.717072 327.360504,313.650299 329.282471,312.134338 
	C338.046692,305.221436 343.627777,296.632629 342.941895,284.503845 
	C347.151276,285.919647 345.314056,289.883636 344.733398,292.250977 
	C341.933044,303.668274 336.737885,313.397278 323.354645,315.983398 
z"/>
<path fill="#1D1E24" opacity="1.000000" stroke="none" 
	d="
M196.759628,351.721527 
	C194.198212,352.344452 191.339066,352.895081 188.468002,352.966431 
	C182.538177,353.113770 176.598618,353.120056 170.670197,352.944061 
	C168.425476,352.877441 165.528442,352.560760 168.632553,349.031189 
	C170.445145,349.655090 171.862335,350.854828 173.328217,350.917633 
	C181.030869,351.247528 188.745819,351.289948 196.759628,351.721527 
z"/>
<path fill="#1D1E24" opacity="1.000000" stroke="none" 
	d="
M462.848907,350.338715 
	C463.353271,349.954102 463.829376,349.941193 464.660767,349.956512 
	C464.071747,350.984589 463.150421,352.820679 462.179382,352.847382 
	C456.261871,353.010040 450.333069,352.761383 444.095825,352.339172 
	C449.167053,351.848938 454.551971,351.702850 459.932434,351.459167 
	C460.904510,351.415131 461.858398,350.970276 462.848907,350.338715 
z"/>
<path fill="#000000" opacity="1.000000" stroke="none" 
	d="
M323.886780,263.727081 
	C317.504852,262.763123 311.107056,262.195312 304.463928,265.051880 
	C306.125793,260.495911 310.578186,261.229797 314.195648,261.180267 
	C317.398193,261.136414 320.620941,262.566803 323.886780,263.727081 
z"/>
<path fill="#000000" opacity="1.000000" stroke="none" 
	d="
M338.964844,275.754547 
	C336.354736,273.648468 333.752655,271.167908 331.023407,268.376129 
	C335.481415,268.413330 337.724091,271.348022 338.964844,275.754547 
z"/>
<path fill="#000000" opacity="1.000000" stroke="none" 
	d="
M291.757080,274.091919 
	C290.994476,276.623840 289.881622,279.186066 288.445129,281.899017 
	C289.216583,279.407227 290.311707,276.764740 291.757080,274.091919 
z"/>
<path fill="#000000" opacity="1.000000" stroke="none" 
	d="
M287.482178,286.094543 
	C287.890472,288.045044 287.939270,290.089264 287.914856,292.566376 
	C284.838165,291.020660 285.506348,288.654510 287.482178,286.094543 
z"/>
<path fill="#000000" opacity="1.000000" stroke="none" 
	d="
M342.952881,283.700623 
	C341.953644,281.999054 340.971985,279.894196 339.930481,277.416077 
	C340.903900,279.127655 341.937164,281.212494 342.952881,283.700623 
z"/>
<path fill="#000000" opacity="1.000000" stroke="none" 
	d="
M303.710388,265.046692 
	C302.341919,266.042297 300.577118,267.022308 298.427551,268.065857 
	C299.799896,267.096619 301.557007,266.063843 303.710388,265.046692 
z"/>
<path fill="#000000" opacity="1.000000" stroke="none" 
	d="
M330.947144,267.742554 
	C329.624512,267.349060 328.313507,266.593964 326.974365,265.477844 
	C329.538086,263.648376 330.610382,264.873108 330.947144,267.742554 
z"/>
<path fill="#515359" opacity="1.000000" stroke="none" 
	d="
M270.567871,249.788544 
	C271.252594,248.986618 272.240082,248.137024 273.504639,247.263977 
	C272.811371,248.073990 271.840973,248.907425 270.567871,249.788544 
z"/>
<path fill="#27292F" opacity="1.000000" stroke="none" 
	d="
M362.603638,250.023239 
	C363.002136,250.767197 363.027008,251.511627 363.034882,252.628662 
	C362.028320,252.218979 361.038788,251.436691 360.020813,250.308105 
	C360.738220,249.982437 361.484131,250.003082 362.603638,250.023239 
z"/>
<path fill="#27292F" opacity="1.000000" stroke="none" 
	d="
M371.604279,259.023346 
	C372.002136,259.767212 372.027008,260.511658 372.034851,261.628723 
	C371.019653,261.225983 370.021454,260.450592 369.010925,259.328674 
	C369.742859,258.996094 370.487091,259.010010 371.604279,259.023346 
z"/>
<path fill="#27292F" opacity="1.000000" stroke="none" 
	d="
M372.011993,262.330994 
	C372.742889,261.996124 373.487122,262.010071 374.604309,262.023407 
	C375.009460,262.771179 375.041656,263.519623 375.091492,264.643188 
	C374.081238,264.238831 373.053284,263.459351 372.011993,262.330994 
z"/>
<path fill="#000000" opacity="1.000000" stroke="none" 
	d="
M294.723755,271.053223 
	C294.306213,271.986572 293.505798,272.910797 292.385162,273.969299 
	C292.823578,273.083801 293.582214,272.063965 294.723755,271.053223 
z"/>
<path fill="#1D1E24" opacity="1.000000" stroke="none" 
	d="
M169.017731,346.402161 
	C169.495438,346.003998 169.961441,345.978333 170.779816,345.961060 
	C170.647919,346.946381 170.163681,347.923279 169.329910,348.954590 
	C168.988922,348.264252 168.997482,347.519470 169.017731,346.402161 
z"/>
<path fill="#3C3E43" opacity="1.000000" stroke="none" 
	d="
M216.320679,303.055206 
	C216.023148,302.554199 216.069794,302.107941 216.057205,301.329926 
	C216.742035,301.002991 217.486084,301.007812 218.602463,301.043518 
	C218.204803,301.752899 217.434830,302.431427 216.320679,303.055206 
z"/>
<path fill="#515359" opacity="1.000000" stroke="none" 
	d="
M274.504211,246.696838 
	C274.646362,246.011414 275.053375,245.243668 275.697021,244.343674 
	C275.545471,245.012451 275.157288,245.813507 274.504211,246.696838 
z"/>
<path fill="#000000" opacity="1.000000" stroke="none" 
	d="
M296.790497,269.072815 
	C296.673492,269.696777 296.217621,270.350708 295.411743,271.055969 
	C295.525024,270.439087 295.988342,269.770935 296.790497,269.072815 
z"/>
<path fill="#515359" opacity="1.000000" stroke="none" 
	d="
M223.304596,295.560699 
	C223.710144,295.225830 224.103500,295.141144 224.771942,294.923767 
	C224.665634,295.399323 224.284271,296.007538 223.649445,296.710388 
	C223.361465,296.473602 223.326950,296.142273 223.304596,295.560699 
z"/>
<path fill="#515359" opacity="1.000000" stroke="none" 
	d="
M277.557129,242.815125 
	C277.710510,242.679611 278.050598,242.489349 278.596161,242.303894 
	C278.449036,242.459229 278.096466,242.609802 277.557129,242.815125 
z"/>
<path fill="#3C3E43" opacity="1.000000" stroke="none" 
	d="
M196.998367,322.000732 
	C196.935211,321.746185 197.192139,321.451355 197.728470,321.066772 
	C197.778061,321.304840 197.548264,321.632660 196.998367,322.000732 
z"/>
<path fill="#1D1E24" opacity="1.000000" stroke="none" 
	d="
M441.921997,351.783020 
	C441.755280,351.825623 441.479858,351.639832 441.096008,351.225281 
	C441.262817,351.182556 441.538055,351.368591 441.921997,351.783020 
z"/>
<path fill="#27292F" opacity="1.000000" stroke="none" 
	d="
M363.108551,253.257904 
	C363.308044,253.177902 363.622437,253.372910 364.111389,253.793976 
	C363.931793,253.857666 363.577606,253.695297 363.108551,253.257904 
z"/>
<path fill="#27292F" opacity="1.000000" stroke="none" 
	d="
M365.039459,255.009033 
	C365.257965,254.969223 365.535950,255.224274 365.915527,255.742828 
	C365.711060,255.772171 365.404968,255.538040 365.039459,255.009033 
z"/>
<path fill="#27292F" opacity="1.000000" stroke="none" 
	d="
M366.108551,256.257904 
	C366.308075,256.177887 366.622437,256.372864 367.111389,256.793915 
	C366.931793,256.857635 366.577606,256.695282 366.108551,256.257904 
z"/>
<path fill="#27292F" opacity="1.000000" stroke="none" 
	d="
M368.039459,258.009033 
	C368.257965,257.969208 368.535950,258.224274 368.915527,258.742798 
	C368.711029,258.772186 368.404968,258.538055 368.039459,258.009033 
z"/>
<path fill="#000000" opacity="1.000000" stroke="none" 
	d="
M324.854431,264.651611 
	C324.680359,264.750854 324.371429,264.660126 323.976379,264.313965 
	C324.206696,264.110687 324.483093,264.245026 324.854431,264.651611 
z"/>
<path fill="#000000" opacity="1.000000" stroke="none" 
	d="
M315.068787,384.284119 
	C315.829071,384.584137 316.608002,385.178497 317.118652,385.933929 
	C316.262756,385.589478 315.675110,385.083954 315.068787,384.284119 
z"/>
<path fill="#000000" opacity="1.000000" stroke="none" 
	d="
M224.266373,385.375000 
	C224.581818,384.871796 224.988113,384.579498 225.597015,384.137207 
	C225.772263,384.592804 225.744888,385.198395 225.429108,385.933472 
	C224.839417,385.969727 224.578262,385.810730 224.266373,385.375000 
z"/>
<path fill="#04050E" opacity="1.000000" stroke="none" 
	d="
M329.962524,296.863953 
	C328.735809,297.871307 327.438354,298.805573 326.301239,299.905548 
	C325.035400,301.130066 323.915497,302.505493 322.732056,303.815216 
	C322.998596,304.513794 323.265137,305.212402 323.531647,305.910980 
	C317.352661,304.948883 311.166901,304.025604 305.006683,302.955536 
	C304.479675,302.864014 304.122162,301.796783 303.332031,300.666534 
	C302.282379,299.454468 301.586609,298.758698 300.890839,298.062897 
	C300.890839,298.062897 300.973175,298.026703 300.963409,297.642029 
	C299.825867,291.092712 298.234436,284.843140 304.424255,279.910767 
	C305.156067,279.228607 305.584778,278.598938 306.008698,277.986420 
	C306.003906,278.003571 305.971649,278.018585 306.207275,277.914124 
	C306.632874,277.531006 306.822906,277.252319 307.009277,276.990295 
	C307.005615,277.006927 306.971558,277.005615 307.394958,277.007782 
	C312.250671,276.677612 316.682983,276.345276 321.460999,276.048706 
	C324.574066,277.701843 327.341400,279.319275 330.108765,280.936707 
	C330.108765,280.936707 330.025726,280.976868 330.030212,281.367615 
	C330.010651,286.793579 329.986572,291.828766 329.962524,296.863953 
z"/>
<path fill="#000000" opacity="1.000000" stroke="none" 
	d="
M304.121155,279.963226 
	C298.234436,284.843140 299.825867,291.092712 300.945221,297.683167 
	C299.996429,297.201569 298.250305,296.298492 298.245483,295.386108 
	C298.212067,289.117920 295.821625,282.152802 302.819794,277.638214 
	C304.418976,276.606537 305.795197,275.229370 307.619019,274.371765 
	C307.633179,275.490082 307.302368,276.247864 306.971558,277.005615 
	C306.971558,277.005615 307.005615,277.006927 306.780396,277.102722 
	C306.360687,277.471863 306.166168,277.745239 305.971649,278.018585 
	C305.971649,278.018585 306.003906,278.003571 305.758179,278.123291 
	C305.048676,278.816437 304.584930,279.389832 304.121155,279.963226 
z"/>
<path fill="#000000" opacity="1.000000" stroke="none" 
	d="
M330.056854,280.584534 
	C327.341400,279.319275 324.574066,277.701843 321.209351,275.743286 
	C316.673859,274.916260 312.735718,274.430359 308.797546,273.944458 
	C311.628662,273.297791 314.561707,271.838074 317.269196,272.177521 
	C322.546051,272.839020 327.401947,274.963287 330.056854,280.584534 
z"/>
<path fill="#000000" opacity="1.000000" stroke="none" 
	d="
M330.371033,296.922241 
	C329.986572,291.828766 330.010651,286.793579 330.050110,281.326019 
	C333.952179,286.516785 334.227112,292.710815 330.371033,296.922241 
z"/>
<path fill="#27292F" opacity="1.000000" stroke="none" 
	d="
M308.583008,273.939545 
	C312.735718,274.430359 316.673859,274.916260 320.863647,275.707581 
	C316.682983,276.345276 312.250671,276.677612 307.394989,277.007782 
	C307.302368,276.247864 307.633179,275.490082 307.970337,274.421021 
	C307.976685,274.109741 308.368500,273.934631 308.583008,273.939545 
z"/>
<path fill="#000000" opacity="1.000000" stroke="none" 
	d="
M300.942474,298.389130 
	C301.586609,298.758698 302.282379,299.454468 302.988220,300.496826 
	C302.330231,300.134033 301.662170,299.424683 300.942474,298.389130 
z"/>
<path fill="#27292F" opacity="1.000000" stroke="none" 
	d="
M304.424255,279.910767 
	C304.584930,279.389832 305.048676,278.816437 305.762970,278.106140 
	C305.584778,278.598938 305.156067,279.228607 304.424255,279.910767 
z"/>
<path fill="#27292F" opacity="1.000000" stroke="none" 
	d="
M306.207275,277.914124 
	C306.166168,277.745239 306.360687,277.471863 306.784058,277.086090 
	C306.822906,277.252319 306.632874,277.531006 306.207275,277.914124 
z"/>
</svg>