<svg version="1.1" id="Layer_1" xmlns="http://www.w3.org/2000/svg" x="0px" y="0px"
	 width="100%" viewBox="0 0 285 260" xml:space="preserve">
<path fill="none" opacity="1.0" stroke="none" 
	d="
M272.000000,105.000000 
	C272.000000,161.974075 272.000000,218.448166 272.000000,274.961121 
	C181.734055,274.961121 91.468086,274.961121 1.101059,274.961121 
	C1.101059,183.776047 1.101059,92.551941 1.101059,1.163919 
	C91.333092,1.163919 181.666519,1.163919 272.000000,1.163919 
	C272.000000,35.531723 272.000000,70.015862 272.000000,105.000000 
M212.511642,151.488815 
	C212.511642,142.739258 212.511642,133.989700 212.511642,125.383179 
	C163.179626,125.383179 114.306244,125.383179 64.933563,125.383179 
	C64.933563,159.221268 64.933563,192.733871 64.933563,226.824982 
	C58.040726,226.824982 51.648098,226.824982 45.243225,226.824982 
	C45.243225,231.546005 45.243225,235.682266 45.243225,240.094269 
	C107.282906,240.094269 169.163727,240.094269 231.448914,240.094269 
	C231.448914,235.648392 231.448914,231.274933 231.448914,226.539841 
	C225.252243,226.539841 219.177719,226.539841 212.346542,226.539841 
	C212.346542,201.620331 212.346542,177.050354 212.511642,151.488815 
M176.960159,59.540684 
	C164.050354,46.911301 151.140549,34.281918 138.164749,21.587982 
	C105.373840,53.761909 72.998154,85.528419 40.365059,117.547501 
	C106.158905,117.547501 171.392136,117.547501 237.676804,117.547501 
	C217.112900,97.908897 197.286743,78.974838 176.960159,59.540684 
M76.174339,40.148888 
	C75.243858,37.938488 74.313377,35.728092 73.381477,33.518341 
	C66.764748,47.956276 66.764748,47.956276 53.666348,53.969166 
	C64.203011,57.402760 70.889603,64.115402 73.391396,74.822227 
	C75.941612,63.789684 82.755630,57.156403 94.263496,53.647198 
	C85.851486,51.290054 79.970406,47.618519 76.174339,40.148888 
M196.193527,63.693710 
	C198.455093,54.327778 204.413910,48.481594 215.141830,45.597786 
	C203.140244,43.140476 198.368790,35.234577 195.258652,26.620869 
	C192.867050,30.731554 191.199356,35.272572 188.113846,38.426556 
	C185.077774,41.529987 180.603653,43.226604 176.625259,45.621975 
	C185.571838,48.889915 192.096313,54.718887 194.362625,64.519356 
	C194.386017,64.620537 195.480453,64.474045 196.193527,63.693710 
M230.631927,72.031540 
	C232.440674,71.245972 234.249435,70.460403 236.579407,69.448456 
	C229.684143,66.982536 224.244888,63.510380 222.610672,55.821430 
	C219.778564,62.576561 215.220428,67.045898 208.302231,69.415207 
	C215.461609,71.398849 219.639572,76.153320 221.980469,81.868317 
	C224.797531,78.488495 227.376358,75.394516 230.631927,72.031540 
M225.415482,40.686737 
	C225.907715,40.853298 226.818527,41.195831 226.832962,41.161514 
	C229.063049,35.857067 232.813950,32.229774 237.636063,31.090904 
	C233.740829,27.348471 229.755463,23.519451 226.474152,20.366867 
	C223.464691,23.488560 219.830200,27.258589 216.965683,30.229925 
	C219.429367,33.213657 222.260162,36.641987 225.415482,40.686737 
M51.932213,87.472191 
	C51.259033,82.651314 47.862175,85.361664 45.053844,84.684288 
	C45.228287,87.065849 45.365929,88.945015 45.530426,91.190857 
	C48.344704,90.748154 51.613918,92.936646 51.932213,87.472191 
M48.084961,32.607819 
	C42.427540,32.274895 44.106232,35.726631 44.895348,40.058556 
	C47.358757,38.728344 49.256771,37.703442 51.154785,36.678539 
	C50.371735,35.369648 49.588684,34.060757 48.084961,32.607819 
M48.533981,68.058411 
	C43.219246,68.105721 45.942616,71.561592 45.606258,74.351486 
	C47.821293,74.239922 49.570240,74.151833 51.560059,74.051613 
	C51.580631,71.508316 53.802555,68.653015 48.533981,68.058411 
M51.055019,16.499317 
	C50.217472,12.272530 47.492451,14.160445 44.967457,14.399992 
	C45.075085,16.278158 45.165504,17.856039 45.365162,21.340080 
	C47.945442,19.541847 49.500683,18.457981 51.055019,16.499317 
z"/>
<path fill="#070813" opacity="1.000000" stroke="none" 
	d="
M212.429092,151.984589 
	C212.346542,177.050354 212.346542,201.620331 212.346542,226.539841 
	C219.177719,226.539841 225.252243,226.539841 231.448914,226.539841 
	C231.448914,231.274933 231.448914,235.648392 231.448914,240.094269 
	C169.163727,240.094269 107.282906,240.094269 45.243225,240.094269 
	C45.243225,235.682266 45.243225,231.546005 45.243225,226.824982 
	C51.648098,226.824982 58.040726,226.824982 64.933563,226.824982 
	C64.933563,192.733871 64.933563,159.221268 64.933563,125.383179 
	C114.306244,125.383179 163.179626,125.383179 212.511642,125.383179 
	C212.511642,133.989700 212.511642,142.739258 212.429092,151.984589 
M199.856873,158.089554 
	C199.536560,157.983200 199.233566,158.019867 198.086746,158.041214 
	C197.639084,156.237549 196.896713,154.448822 196.804474,152.627151 
	C196.606461,148.716721 196.743744,144.789307 196.743744,141.067062 
	C183.161377,141.067062 170.096130,141.067062 156.816727,141.067062 
	C156.945572,143.275253 157.047882,145.028534 157.179825,147.289673 
	C168.005814,147.289673 178.414719,147.289673 188.703278,147.289673 
	C188.703278,151.077301 188.703278,154.317429 188.703278,158.091461 
	C177.416611,158.091461 166.533417,158.091461 155.803070,158.091461 
	C155.803070,169.726593 155.803070,180.807266 155.803070,191.989807 
	C165.802719,191.989807 175.399384,191.989807 185.655853,192.177124 
	C186.104858,192.116592 186.553848,192.056076 187.504318,192.111206 
	C187.670273,192.067780 187.836227,192.024368 188.730606,192.198883 
	C189.482422,192.101562 190.234222,192.004242 191.847000,192.194031 
	C194.249725,192.073013 196.652466,191.951996 199.888596,191.869858 
	C200.210663,191.041183 200.807358,190.213943 200.811661,189.383606 
	C200.848572,182.280258 200.778137,175.176361 200.952667,167.212036 
	C200.838181,164.397675 200.723694,161.583298 200.504974,158.487244 
	C200.504974,158.487244 200.222366,158.385544 199.856873,158.089554 
M111.767715,226.699997 
	C115.041862,226.699997 118.316002,226.699997 121.805534,226.699997 
	C121.805534,202.695145 121.805534,179.202423 121.805534,155.487473 
	C118.012405,155.487473 114.424858,155.487473 110.263321,155.320831 
	C109.865463,155.330933 109.467613,155.341034 108.501015,155.097305 
	C108.311401,155.181824 108.121780,155.266357 107.034386,155.303406 
	C103.603210,155.303406 100.172035,155.303406 96.613525,155.303406 
	C96.613525,179.389725 96.613525,202.845993 96.613525,226.510239 
	C101.616226,226.510239 106.231255,226.510239 111.767715,226.699997 
M86.453735,221.397827 
	C86.453735,195.997543 86.453735,170.597244 86.453735,145.298828 
	C102.019157,145.298828 116.942245,145.298828 132.420227,145.298828 
	C132.420227,172.658951 132.420227,199.674316 132.420227,226.793182 
	C135.254745,226.669388 137.521820,226.570374 139.849945,226.468689 
	C139.849945,196.820496 139.849945,167.480728 139.849945,138.227936 
	C119.458992,138.227936 99.322800,138.227936 79.307404,138.227936 
	C79.307404,168.138443 79.307404,197.537292 79.307404,227.326935 
	C82.160812,225.807388 87.590775,229.008163 86.453735,221.397827 
M188.468292,217.114288 
	C191.230591,217.114288 193.992905,217.114288 196.721710,217.114288 
	C196.721710,214.686203 196.721710,212.777527 196.721710,210.583755 
	C182.570862,210.583755 168.653381,210.578369 154.735901,210.597885 
	C153.950424,210.598984 153.165237,210.804657 152.344910,210.920029 
	C152.344910,213.113098 152.344910,214.992233 152.344910,217.114288 
	C164.267578,217.114288 175.870560,217.114288 188.468292,217.114288 
z"/>
<path fill="#050611" opacity="1.000000" stroke="none" 
	d="
M177.210358,59.790733 
	C197.286743,78.974838 217.112900,97.908897 237.676804,117.547501 
	C171.392136,117.547501 106.158905,117.547501 40.365059,117.547501 
	C72.998154,85.528419 105.373840,53.761909 138.164749,21.587982 
	C151.140549,34.281918 164.050354,46.911301 177.210358,59.790733 
M120.360580,71.355621 
	C120.147911,72.835831 119.818443,74.310059 119.742332,75.797256 
	C119.365952,83.151619 123.541481,89.633797 130.591278,92.761856 
	C137.619843,95.880486 146.460846,94.437218 151.400299,89.364830 
	C157.059021,83.553780 158.578873,76.293007 155.297150,69.201515 
	C151.956635,61.982967 145.811676,58.566700 138.164948,58.271080 
	C130.161362,57.961655 123.642075,62.866684 120.360580,71.355621 
z"/>
<path fill="white" opacity="1.000000" stroke="none" 
	d="
M76.385147,40.453484 
	C79.970406,47.618519 85.851486,51.290054 94.263496,53.647198 
	C82.755630,57.156403 75.941612,63.789684 73.391396,74.822227 
	C70.889603,64.115402 64.203011,57.402760 53.666348,53.969166 
	C66.764748,47.956276 66.764748,47.956276 73.382187,33.518021 
	C74.313377,35.728092 75.243858,37.938488 76.385147,40.453484 
z"/>
<path fill="#0A0B16" opacity="1.000000" stroke="none" 
	d="
M196.134216,64.068443 
	C195.480453,64.474045 194.386017,64.620537 194.362625,64.519356 
	C192.096313,54.718887 185.571838,48.889915 176.625259,45.621975 
	C180.603653,43.226604 185.077774,41.529987 188.113846,38.426556 
	C191.199356,35.272572 192.867050,30.731554 195.258652,26.620869 
	C198.368790,35.234577 203.140244,43.140476 215.141830,45.597786 
	C204.413910,48.481594 198.455093,54.327778 196.134216,64.068443 
z"/>
<path fill="white" opacity="1.000000" stroke="none" 
	d="
M230.293549,72.166031 
	C227.376358,75.394516 224.797531,78.488495 221.980469,81.868317 
	C219.639572,76.153320 215.461609,71.398849 208.302231,69.415207 
	C215.220428,67.045898 219.778564,62.576561 222.610672,55.821430 
	C224.244888,63.510380 229.684143,66.982536 236.579407,69.448456 
	C234.249435,70.460403 232.440674,71.245972 230.293549,72.166031 
z"/>
<path fill="#0F111B" opacity="1.000000" stroke="none" 
	d="
M225.253204,40.378529 
	C222.260162,36.641987 219.429367,33.213657 216.965683,30.229925 
	C219.830200,27.258589 223.464691,23.488560 226.474152,20.366867 
	C229.755463,23.519451 233.740829,27.348471 237.636063,31.090904 
	C232.813950,32.229774 229.063049,35.857067 226.832962,41.161514 
	C226.818527,41.195831 225.907715,40.853298 225.253204,40.378529 
z"/>
<path fill="none" opacity="1.000000" stroke="none" 
	d="
M86.454880,221.884216 
	C87.590775,229.008163 82.160812,225.807388 79.307404,227.326935 
	C79.307404,197.537292 79.307404,168.138443 79.307404,138.227936 
	C99.322800,138.227936 119.458992,138.227936 139.849945,138.227936 
	C139.849945,167.480728 139.849945,196.820496 139.849945,226.468689 
	C137.521820,226.570374 135.254745,226.669388 132.420227,226.793182 
	C132.420227,199.674316 132.420227,172.658951 132.420227,145.298828 
	C116.942245,145.298828 102.019157,145.298828 86.453735,145.298828 
	C86.453735,170.597244 86.453735,195.997543 86.454880,221.884216 
z"/>
<path fill="none" opacity="1.000000" stroke="none" 
	d="
M109.069756,155.351105 
	C109.467613,155.341034 109.865463,155.330933 110.525894,155.753479 
	C110.690346,157.000839 110.503387,157.815933 110.507034,158.630173 
	C110.608284,181.256912 110.728874,203.883575 110.846275,226.510239 
	C106.231255,226.510239 101.616226,226.510239 96.613525,226.510239 
	C96.613525,202.845993 96.613525,179.389725 96.613525,155.303406 
	C100.172035,155.303406 103.603210,155.303406 107.577911,155.498611 
	C108.437546,155.579590 108.753647,155.465347 109.069756,155.351105 
z"/>
<path fill="black" opacity="1.000000" stroke="none" 
	d="
M184.996063,191.989807 
	C175.399384,191.989807 165.802719,191.989807 155.803070,191.989807 
	C155.803070,180.807266 155.803070,169.726593 155.803070,158.091461 
	C166.533417,158.091461 177.416611,158.091461 188.703278,158.091461 
	C188.703278,154.317429 188.703278,151.077301 188.703278,147.289673 
	C178.414719,147.289673 168.005814,147.289673 157.179825,147.289673 
	C157.047882,145.028534 156.945572,143.275253 156.816727,141.067062 
	C170.096130,141.067062 183.161377,141.067062 196.743744,141.067062 
	C196.743744,144.789307 196.606461,148.716721 196.804474,152.627151 
	C196.896713,154.448822 197.639084,156.237549 198.692413,158.319153 
	C199.606171,158.526566 199.914261,158.456055 200.222366,158.385559 
	C200.222366,158.385544 200.504974,158.487244 200.359146,159.058197 
	C200.101990,162.421738 199.990662,165.214340 199.661133,167.823990 
	C199.129379,167.017059 198.815857,166.393082 198.669495,166.101807 
	C197.376999,166.791870 196.306046,167.363647 195.030869,167.642197 
	C193.205063,166.587585 191.583481,165.826218 189.512726,165.002182 
	C186.020599,164.985397 182.977646,165.031281 179.509583,165.018036 
	C177.367035,165.015549 175.649612,165.072189 173.485474,165.055054 
	C169.722122,165.006256 166.405502,165.031265 162.878754,165.076462 
	C162.567032,165.192932 162.362167,165.329941 162.381363,165.378601 
	C162.475601,165.617569 162.629379,165.833069 162.837540,166.482269 
	C162.989731,168.626633 163.066513,170.345596 163.105255,172.519562 
	C162.966522,176.636337 162.865829,180.298126 162.591675,184.072983 
	C162.592026,184.466385 162.765839,184.746719 163.396545,185.156311 
	C169.216293,185.361328 174.579147,185.437073 179.933380,185.827759 
	C180.931000,187.131348 181.996750,188.067749 182.924988,189.124863 
	C183.699036,190.006363 184.311859,191.029434 184.996063,191.989807 
z"/>
<path fill="none" opacity="1.000000" stroke="none" 
	d="
M111.306992,226.605118 
	C110.728874,203.883575 110.608284,181.256912 110.507034,158.630173 
	C110.503387,157.815933 110.690346,157.000839 110.812897,155.836807 
	C114.424858,155.487473 118.012405,155.487473 121.805534,155.487473 
	C121.805534,179.202423 121.805534,202.695145 121.805534,226.699997 
	C118.316002,226.699997 115.041862,226.699997 111.306992,226.605118 
z"/>
<path fill="none" opacity="1.000000" stroke="none" 
	d="
M187.970917,217.114288 
	C175.870560,217.114288 164.267578,217.114288 152.344910,217.114288 
	C152.344910,214.992233 152.344910,213.113098 152.344910,210.920029 
	C153.165237,210.804657 153.950424,210.598984 154.735901,210.597885 
	C168.653381,210.578369 182.570862,210.583755 196.721710,210.583755 
	C196.721710,212.777527 196.721710,214.686203 196.721710,217.114288 
	C193.992905,217.114288 191.230591,217.114288 187.970917,217.114288 
z"/>
<path fill="black" opacity="1.000000" stroke="none" 
	d="
M195.235092,167.935455 
	C196.306046,167.363647 197.376999,166.791870 198.669495,166.101807 
	C198.815857,166.393082 199.129379,167.017059 199.875244,167.856903 
	C200.307571,168.072784 200.739822,168.072617 200.739822,168.072617 
	C200.778137,175.176361 200.848572,182.280258 200.811661,189.383606 
	C200.807358,190.213943 200.210663,191.041183 199.471344,191.398529 
	C199.054108,186.859573 199.054108,182.791916 199.054108,178.724274 
	C198.737350,178.681992 198.420593,178.639725 198.103836,178.597458 
	C197.676224,179.830505 197.248611,181.063568 196.780823,182.412476 
	C195.961105,181.839828 195.339600,181.405655 194.746109,180.618103 
	C194.740387,179.557449 194.706650,178.850174 194.787582,177.700867 
	C194.849350,175.444672 194.796448,173.630508 194.757721,171.486694 
	C194.760620,170.499268 194.749329,169.841476 194.869171,168.874390 
	C195.078598,168.355194 195.156845,168.145325 195.235092,167.935455 
z"/>
<path fill="black" opacity="1.000000" stroke="none" 
	d="
M194.718094,180.971497 
	C195.339600,181.405655 195.961105,181.839828 196.780823,182.412476 
	C197.248611,181.063568 197.676224,179.830505 198.103836,178.597458 
	C198.420593,178.639725 198.737350,178.681992 199.054108,178.724274 
	C199.054108,182.791916 199.054108,186.859573 199.054657,191.379105 
	C196.652466,191.951996 194.249725,192.073013 191.421051,191.739136 
	C190.016174,189.471512 189.037231,187.658768 188.467621,185.790833 
	C192.421036,186.062546 194.194046,184.799927 193.396729,181.037964 
	C194.013123,181.045349 194.365601,181.008423 194.718094,180.971497 
z"/>
<path fill="black" opacity="1.000000" stroke="none" 
	d="
M188.058289,185.846008 
	C189.037231,187.658768 190.016174,189.471512 190.990570,191.595596 
	C190.234222,192.004242 189.482422,192.101562 188.282349,191.922607 
	C187.557022,191.762756 187.279938,191.879166 187.002853,191.995575 
	C186.553848,192.056076 186.104858,192.116592 185.325958,192.083466 
	C184.311859,191.029434 183.699036,190.006363 182.924988,189.124863 
	C181.996750,188.067749 180.931000,187.131348 180.351898,185.764069 
	C183.205429,185.538956 185.631851,185.692490 188.058289,185.846008 
z"/>
<path fill="black" opacity="1.000000" stroke="none" 
	d="
M200.846252,167.642334 
	C200.739822,168.072617 200.307571,168.072784 200.093445,168.039856 
	C199.990662,165.214340 200.101990,162.421738 200.411255,159.199036 
	C200.723694,161.583298 200.838181,164.397675 200.846252,167.642334 
z"/>

<path fill="black" opacity="1.000000" stroke="none" 
	d="
M200.039612,158.237549 
	C199.914261,158.456055 199.606171,158.526566 199.122971,158.398315 
	C199.233566,158.019867 199.536560,157.983200 200.039612,158.237549 
z"/>
<path fill="black" opacity="1.000000" stroke="none" 
	d="
M108.785385,155.224213 
	C108.753647,155.465347 108.437546,155.579590 108.026810,155.522339 
	C108.121780,155.266357 108.311401,155.181824 108.785385,155.224213 
z"/>
<path fill="black" opacity="1.000000" stroke="none" 
	d="
M120.516899,70.972649 
	C123.642075,62.866684 130.161362,57.961655 138.164948,58.271080 
	C145.811676,58.566700 151.956635,61.982967 155.297150,69.201515 
	C158.578873,76.293007 157.059021,83.553780 151.400299,89.364830 
	C146.460846,94.437218 137.619843,95.880486 130.591278,92.761856 
	C123.541481,89.633797 119.365952,83.151619 119.742332,75.797256 
	C119.818443,74.310059 120.147911,72.835831 120.516899,70.972649 
M130.700867,69.270096 
	C130.208252,69.934799 129.655762,70.563614 129.232620,71.269928 
	C126.085777,76.522614 127.957550,82.414764 133.701599,85.411461 
	C138.728806,88.034187 145.260651,85.657211 147.929169,80.233955 
	C150.292831,75.430252 147.745743,69.384377 142.437408,67.123741 
	C138.369919,65.391541 134.669556,66.047646 130.700867,69.270096 
z"/>
<path fill="black" opacity="1.000000" stroke="none" 
	d="
M188.467621,185.790833 
	C185.631851,185.692490 183.205429,185.538956 180.360489,185.449127 
	C174.579147,185.437073 169.216293,185.361328 163.383072,184.884583 
	C162.863510,184.309036 162.814316,184.134476 162.765137,183.959900 
	C162.865829,180.298126 162.966522,176.636337 163.474670,172.546051 
	C165.084595,175.490601 167.623932,176.455521 171.023865,176.403992 
	C173.373535,182.395416 178.006958,179.396194 182.185242,179.807098 
	C185.395233,180.010071 188.150787,180.105545 191.104736,180.447372 
	C191.913025,180.793701 192.522919,180.893661 193.132812,180.993637 
	C194.194046,184.799927 192.421036,186.062546 188.467621,185.790833 
z"/>
<path fill="black" opacity="1.000000" stroke="none" 
	d="
M170.933868,176.032349 
	C167.623932,176.455521 165.084595,175.490601 163.512711,172.091049 
	C163.066513,170.345596 162.989731,168.626633 162.929626,166.235504 
	C162.993851,165.394287 163.041367,165.225281 163.088882,165.056274 
	C166.405502,165.031265 169.722122,165.006256 173.299240,165.291931 
	C172.590073,166.220673 171.620392,166.838730 170.144882,167.779205 
	C171.805450,168.321198 172.830185,168.655670 173.881897,169.247375 
	C173.943405,169.673416 173.977921,169.842224 173.795685,170.280975 
	C172.697235,172.378036 171.815552,174.205185 170.933868,176.032349 
z"/>
<path fill="black" opacity="1.000000" stroke="none" 
	d="
M189.512726,165.002182 
	C188.815430,167.056000 187.668976,169.047134 186.428223,171.202011 
	C186.195404,170.129639 185.945129,168.976776 185.771729,168.178024 
	C183.482254,168.510330 181.288818,168.828690 178.659454,169.487762 
	C177.475143,169.783295 176.726746,169.738129 175.841293,169.527359 
	C175.480408,169.172394 175.227371,169.038071 174.970184,168.582245 
	C176.641739,167.162872 178.288223,166.120026 179.934708,165.077179 
	C182.977646,165.031281 186.020599,164.985397 189.512726,165.002182 
z"/>
<path fill="black" opacity="1.000000" stroke="none" 
	d="
M179.509583,165.018036 
	C178.288223,166.120026 176.641739,167.162872 174.698364,168.609299 
	C174.219284,169.005295 174.037094,168.997726 173.854919,168.990143 
	C172.830185,168.655670 171.805450,168.321198 170.144882,167.779205 
	C171.620392,166.838730 172.590073,166.220673 173.745972,165.365723 
	C175.649612,165.072189 177.367035,165.015549 179.509583,165.018036 
z"/>
<path fill="black" opacity="1.000000" stroke="none" 
	d="
M162.591675,184.072983 
	C162.814316,184.134476 162.863510,184.309036 162.926178,184.755341 
	C162.765839,184.746719 162.592026,184.466385 162.591675,184.072983 
z"/>
<path fill="black" opacity="1.000000" stroke="none" 
	d="
M190.881577,171.941193 
	C191.961685,171.011780 193.041809,170.082352 194.429962,169.168304 
	C194.749329,169.841476 194.760620,170.499268 194.494995,171.536407 
	C193.862366,171.956238 193.506638,171.996704 192.772125,172.019623 
	C191.889404,171.981766 191.385483,171.961472 190.881577,171.941193 
z"/>
<path fill="black" opacity="1.000000" stroke="none" 
	d="
M193.150925,172.037170 
	C193.506638,171.996704 193.862366,171.956238 194.480804,171.866058 
	C194.796448,173.630508 194.849350,175.444672 194.787582,177.700867 
	C194.267029,176.851669 193.861160,175.560425 193.234360,173.803467 
	C193.059250,172.904205 193.105087,172.470688 193.150925,172.037170 
z"/>
<path fill="none" opacity="1.000000" stroke="none" 
	d="
M130.974747,69.000748 
	C134.669556,66.047646 138.369919,65.391541 142.437408,67.123741 
	C147.745743,69.384377 150.292831,75.430252 147.929169,80.233955 
	C145.260651,85.657211 138.728806,88.034187 133.701599,85.411461 
	C127.957550,82.414764 126.085777,76.522614 129.232620,71.269928 
	C129.655762,70.563614 130.208252,69.934799 130.974747,69.000748 
z"/>
<path fill="black" opacity="1.000000" stroke="none" 
	d="
M175.978363,169.692963 
	C176.726746,169.738129 177.475143,169.783295 178.595978,169.776184 
	C182.851181,171.499008 184.115555,174.286835 182.007736,178.788452 
	C181.739563,179.301666 181.730804,179.699600 181.730804,179.699600 
	C178.006958,179.396194 173.373535,182.395416 171.023865,176.403992 
	C171.815552,174.205185 172.697235,172.378036 174.130936,170.289261 
	C175.114761,169.916077 175.546555,169.804520 175.978363,169.692963 
z"/>
<path fill="black" opacity="1.000000" stroke="none" 
	d="
M182.185242,179.807098 
	C181.730804,179.699600 181.739563,179.301666 181.860703,179.143799 
	C184.762527,176.754684 187.543213,174.523438 190.602753,172.116699 
	C191.385483,171.961472 191.889404,171.981766 192.772125,172.019623 
	C193.105087,172.470688 193.059250,172.904205 193.022247,173.665192 
	C188.628067,174.402115 191.756180,177.662521 190.937531,179.820847 
	C188.150787,180.105545 185.395233,180.010071 182.185242,179.807098 
z"/>
<path fill="black" opacity="1.000000" stroke="none" 
	d="
M175.841293,169.527344 
	C175.546555,169.804520 175.114761,169.916077 174.347687,170.019348 
	C173.977921,169.842224 173.943405,169.673416 173.881897,169.247375 
	C174.037094,168.997726 174.219284,169.005295 174.673279,168.985809 
	C175.227371,169.038071 175.480408,169.172394 175.841293,169.527344 
z"/>
</svg>