<svg version="1.1" id="Layer_1" xmlns="http://www.w3.org/2000/svg" xmlns:xlink="http://www.w3.org/1999/xlink" x="0px" y="0px"
	 width="100%" viewBox="0 0 504 553" enable-background="new 0 0 504 553" xml:space="preserve">
<path fill="none" opacity="1.000000" stroke="#000000" stroke-linecap="round" stroke-linejoin="round" stroke-width="17.000000"
	d="
M123.000008,335.000000 
	C135.500000,322.833344 147.777863,310.425934 160.593124,298.600922 
	C167.061386,292.632477 175.410645,289.374786 183.526291,286.064453 
	C184.669434,285.598175 186.166672,286.000000 187.500000,286.000000 
	C200.166672,286.000000 212.878036,286.654327 225.485855,285.792938 
	C235.571686,285.103851 243.936569,288.256683 250.870316,294.640869 
	C258.079620,301.278778 266.067413,303.365723 275.502808,303.098907 
	C289.158539,302.712677 302.833466,303.034576 316.499939,302.985046 
	C323.057281,302.961273 328.939789,304.392303 334.057159,308.935608 
	C338.873260,313.211426 339.866241,312.876129 346.018341,309.533752 
	C353.942993,305.228424 361.961700,301.090637 370.016876,297.033539 
	C373.786346,295.135010 376.041656,292.452332 378.236816,288.636230 
	C384.299469,278.096710 391.325684,267.676544 402.596405,262.198334 
	C413.184875,257.051727 431.672729,257.423553 438.554321,264.446777 
	C442.362549,268.333374 442.810303,269.667236 440.523468,275.010040 
	C436.061615,285.434570 430.020355,295.021759 423.831696,304.388824 
	C416.908905,314.867188 410.672241,325.889893 402.451965,335.458740 
	C395.535767,343.509644 387.727051,350.717560 380.056244,358.058777 
	C371.450867,366.294495 363.080292,374.778748 353.978088,382.474091 
	C349.269470,386.454926 344.549164,390.493774 339.419830,393.878510 
	C336.297424,395.938904 332.604858,397.092834 328.499725,397.078918 
	C289.500183,396.946594 250.498383,397.183472 211.501404,396.840149 
	C203.995880,396.774078 198.014771,398.622375 193.000000,404.000000 
"/>
<path fill="none" opacity="1.000000" stroke="#000000" stroke-linecap="round" stroke-linejoin="round" stroke-width="16.000000"
	d="
M290.000000,257.000000 
	C284.567810,254.698532 280.568665,250.542831 276.507477,246.492508 
	C262.154938,232.178421 247.827942,217.838715 233.510788,203.489227 
	C232.428604,202.404572 231.535690,201.133743 230.494232,200.005341 
	C223.741364,192.688644 223.694214,189.540878 230.512451,182.512085 
	C236.584488,176.252548 243.167358,170.521927 249.080490,164.073807 
	C253.862015,158.859711 257.500427,159.104355 262.488464,164.011719 
	C268.536987,169.962418 274.486145,176.013977 280.511292,181.988617 
	C281.766876,183.233704 283.113617,184.401489 284.509491,185.487808 
	C289.644348,189.483841 291.570160,189.450211 296.482086,184.980331 
	C300.404175,181.411194 304.247253,177.746796 307.986481,173.986557 
	C327.348907,154.515488 346.666534,134.999878 366.000458,115.500450 
	C366.830231,114.663582 367.651184,113.817154 368.502502,113.002625 
	C374.487152,107.276634 376.909790,107.192612 382.977509,113.023407 
	C389.520630,119.311043 395.467987,126.212128 402.494354,132.006836 
	C403.037354,132.454697 403.556549,132.955399 403.991333,133.506836 
	C408.817200,139.627518 408.834045,140.596008 402.982880,146.482986 
	C386.865753,162.698898 370.392029,178.570938 354.601013,195.096527 
	C344.826141,205.326111 334.664764,215.171936 324.818512,225.323975 
	C315.728027,234.696747 306.371948,243.872696 296.990570,252.990280 
	C296.228790,253.730606 295.432587,254.643890 294.483154,254.947281 
	C289.887085,256.415955 289.047729,259.822815 289.500000,264.000000 
"/>
<path fill="none" opacity="1.000000" stroke="#000000" stroke-linecap="round" stroke-linejoin="round" stroke-width="16.000000"
	d="
M340.500000,313.000000 
	C340.114380,315.917908 341.211487,318.665771 341.470978,321.502655 
	C342.566895,333.483337 334.021332,344.336395 318.500122,345.003021 
	C295.172363,346.004913 271.833069,345.292603 248.499863,345.483582 
	C244.500809,345.516327 240.500000,345.333313 236.500000,345.249969 
"/>
<path fill="none" opacity="1.000000" stroke="#000000" stroke-linecap="round" stroke-linejoin="round" stroke-width="17.000000"
	d="
M155.500000,455.500000 
	C156.430725,451.881531 160.426941,452.295837 162.573807,450.071228 
	C171.901794,440.405243 181.428894,430.927338 191.030075,421.530731 
	C195.810745,416.852020 196.497284,411.795258 193.515350,405.992126 
	C193.006348,405.001556 192.908112,403.861420 191.507172,403.474060 
	C183.953964,401.385437 179.718414,394.993713 174.556396,389.942383 
	C159.564026,375.271545 144.833344,360.333313 130.000000,345.500000 
	C129.666656,345.166656 129.207474,344.892578 129.018478,344.491302 
	C124.852242,335.644745 115.889114,331.612549 109.470184,325.029083 
	C106.616264,322.101990 103.431259,321.857422 99.973068,324.464264 
	C95.391228,327.918121 92.132378,332.625244 88.035255,336.536926 
	C81.899605,342.394867 75.943871,348.445160 70.014877,354.514557 
	C63.317936,361.370087 63.304134,364.261902 70.011673,370.988373 
	C91.980637,393.019318 113.992195,415.007812 136.006668,436.993317 
	C140.342880,441.323853 144.169540,446.145874 148.962982,450.045502 
	C150.989609,451.694244 153.114029,453.023041 155.500000,454.000000 
"/>
<path fill="none" opacity="1.000000" stroke="#000000" stroke-linecap="round" stroke-linejoin="round" stroke-width="3.000000"
	d="
M100.500000,369.000000 
	C103.833336,369.000000 107.166664,369.000000 110.500000,369.000000 
"/>
</svg>