<svg version="1.1" id="Layer_1" xmlns="http://www.w3.org/2000/svg" xmlns:xlink="http://www.w3.org/1999/xlink" x="56px" y="51.2px"
	 width="100%" viewBox="0 0 504 553" enable-background="new 0 0 504 553" xml:space="preserve">
<path fill="#000000" opacity="1.000000" stroke="none" 
	d="
M308.998199,337.179688 
	C288.228241,330.968048 268.911407,322.266815 250.865448,311.151794 
	C226.728683,296.285217 202.315262,297.203766 177.281158,307.778900 
	C166.696472,312.250153 156.241959,317.028748 145.683609,321.563690 
	C142.285477,323.023193 141.172119,324.989258 141.698441,328.919586 
	C144.456512,349.515076 146.841476,370.160522 149.361801,390.787933 
	C149.502945,391.943207 149.837906,393.092438 149.837296,394.244324 
	C149.835022,398.465118 151.717758,399.845154 156.022430,399.705139 
	C167.507111,399.331665 178.986115,399.660736 190.421585,401.185883 
	C204.297943,403.036621 216.956421,408.687073 229.938385,413.362335 
	C247.193115,419.576416 264.616089,424.879120 283.072571,426.515472 
	C305.375000,428.492828 325.097778,421.200012 344.014435,410.756348 
	C377.660919,392.180573 409.182770,370.455688 438.451233,345.549469 
	C446.681305,338.546021 454.527740,331.014526 460.632843,321.929382 
	C462.600220,319.001648 464.203583,315.900421 465.144073,312.502258 
	C466.660980,307.021545 463.395386,303.642548 457.917908,305.016907 
	C448.738617,307.320068 440.679382,312.083954 432.688660,316.880493 
	C417.972168,325.714111 403.719360,335.274933 389.572998,344.991760 
	C386.375519,347.188049 383.025360,348.379425 379.320038,346.234528 
	C376.375824,344.530212 375.435211,341.821167 375.727875,338.576569 
	C375.951752,336.094360 377.139252,334.163574 379.209595,332.796875 
	C398.944641,319.769135 418.097290,305.807739 439.349976,295.210419 
	C444.735718,292.524902 450.328522,290.464966 456.279175,289.335754 
	C471.923920,286.367004 484.270569,299.323456 480.762939,314.968292 
	C478.291626,325.991028 471.729462,334.518463 464.309570,342.502777 
	C444.650635,363.657043 421.216675,380.178650 397.561249,396.383331 
	C379.960938,408.440063 361.663055,419.299744 342.726013,429.211060 
	C314.434540,444.018280 285.177490,445.272766 254.895065,437.679291 
	C238.867432,433.660248 223.445328,427.821960 208.070740,421.895813 
	C191.019989,415.323639 173.270935,415.021393 155.406921,415.284485 
	C153.353577,415.314728 151.939499,416.002686 151.310303,418.144379 
	C147.901810,429.746368 139.652008,435.200775 128.018265,435.768311 
	C120.247612,436.147369 112.658653,438.948486 104.758789,437.422119 
	C94.676529,435.474121 87.903214,428.286530 86.637848,418.127014 
	C82.794151,387.266205 78.961807,356.403992 75.108650,325.544373 
	C73.427399,312.079376 81.912567,301.259033 95.465179,299.572937 
	C101.902840,298.772003 108.316216,297.762817 114.763176,297.052948 
	C122.537651,296.196930 129.495422,298.486572 134.579926,304.363281 
	C137.280106,307.484192 139.316315,307.338531 142.632523,305.953247 
	C155.838501,300.436676 168.437561,293.486481 182.230286,289.348267 
	C200.738220,283.795288 219.273819,281.118652 238.052628,288.054840 
	C245.567062,290.830353 252.881836,294.115540 259.776215,298.144653 
	C281.781525,311.004730 305.342346,320.036560 329.664490,327.317444 
	C338.596313,329.991272 347.442596,332.967529 356.019073,336.648529 
	C363.157104,339.712158 369.821686,343.450836 373.227570,351.017731 
	C377.161255,359.757294 374.551422,367.552094 366.149689,372.210480 
	C358.035767,376.709259 348.993835,377.415405 340.069427,378.221771 
	C303.579895,381.518707 268.898926,373.905884 235.252884,360.373291 
	C230.273575,358.370575 228.322235,354.232544 230.035339,349.569794 
	C231.438950,345.749420 236.184937,344.147980 241.061005,345.884460 
	C256.119598,351.247162 271.108215,357.081909 286.865662,359.871765 
	C308.274872,363.662262 329.888092,364.412384 351.472443,360.761810 
	C353.880371,360.354553 356.387054,359.965027 358.371124,357.823425 
	C356.691833,354.108063 353.192017,352.803467 349.932831,351.360748 
	C336.808441,345.551056 322.967712,341.777893 308.998199,337.179688 
M134.608902,398.781494 
	C132.955643,385.580444 131.292618,372.380615 129.651855,359.178009 
	C128.010941,345.974213 126.522110,332.749725 124.701759,319.570892 
	C123.944611,314.089386 120.544327,312.018066 115.125717,312.805939 
	C109.528152,313.619781 103.908493,314.281036 98.308563,315.079620 
	C92.154648,315.957245 90.097267,318.874054 90.882050,324.956177 
	C92.434769,336.989960 93.835808,349.043243 95.339493,361.083466 
	C97.584999,379.063660 99.803658,397.047607 102.167519,415.012360 
	C102.882462,420.445679 105.165489,422.288940 110.595741,421.838165 
	C116.894653,421.315308 123.178963,420.526184 129.436111,419.621063 
	C133.907166,418.974274 136.158829,416.109955 135.873703,411.595856 
	C135.622269,407.615021 135.070190,403.653168 134.608902,398.781494 
z"/>
<path fill="#000000" opacity="1.000000" stroke="none" 
	d="
M358.083923,242.135544 
	C336.819672,257.113220 315.428528,271.262665 293.973358,285.318787 
	C290.044617,287.892670 286.305084,288.061432 282.369446,285.427277 
	C259.947266,270.419769 237.265610,255.797455 215.305573,240.104889 
	C196.909714,226.959229 188.482178,208.267075 187.959442,186.499146 
	C187.147690,152.695923 187.701935,118.859268 187.742401,85.036865 
	C187.749313,79.256683 190.559174,75.934456 195.968872,75.780220 
	C216.035843,75.208084 233.814667,67.494026 251.185699,58.453117 
	C261.545135,53.061459 271.368958,46.796719 280.841431,39.965591 
	C287.014496,35.513836 288.984222,35.575436 295.124542,39.871319 
	C314.723480,53.583157 335.131897,65.744751 358.366974,72.353874 
	C365.092987,74.267059 371.950348,75.557640 378.992523,75.730331 
	C385.788086,75.896980 388.339081,78.483040 388.345825,85.214203 
	C388.379150,118.536842 388.700195,151.863983 388.256378,185.180679 
	C387.940216,208.914215 378.644989,228.446060 358.083923,242.135544 
M252.117035,75.731064 
	C238.010254,82.656143 223.481995,88.331268 207.770264,90.355751 
	C204.481659,90.779503 203.305420,92.336357 203.314560,95.634071 
	C203.398560,125.944298 202.802170,156.269562 203.592712,186.559418 
	C204.020294,202.942169 210.546188,217.225845 224.563477,227.217270 
	C244.227997,241.234024 264.440277,254.433090 284.512451,267.844116 
	C287.105713,269.576813 289.139374,269.548187 291.726898,267.813049 
	C311.775879,254.368820 332.040894,241.247253 351.666504,227.175293 
	C365.275482,217.417343 372.074524,203.635605 372.464661,187.519440 
	C373.206085,156.893646 372.654999,126.237503 372.773682,95.594467 
	C372.788055,91.883514 371.162964,90.691490 367.806396,90.266991 
	C363.860168,89.767921 359.917877,88.999130 356.073212,87.974625 
	C332.942291,81.810783 312.206726,70.596176 292.546478,57.271820 
	C289.271729,55.052418 287.017242,54.857063 283.746307,57.187992 
	C273.973175,64.152557 263.556885,70.093079 252.117035,75.731064 
z"/>
<path fill="#000000" opacity="1.000000" stroke="none" 
	d="
M103.597832,329.808990 
	C106.959618,326.712311 110.469589,326.117218 113.866226,328.568481 
	C117.565926,331.238464 118.009636,335.312317 116.907242,339.388092 
	C115.918037,343.045349 113.000450,344.808838 109.334557,344.679596 
	C105.316429,344.537964 103.065613,341.900879 102.044594,338.213562 
	C101.254318,335.359528 101.555962,332.601166 103.597832,329.808990 
z"/>
<path fill="#000000" opacity="1.000000" stroke="none" 
	d="
M275.273071,194.987671 
	C264.511963,184.278488 254.004883,173.841721 243.573868,163.329437 
	C239.687317,159.412613 239.226318,154.448135 242.224457,151.328690 
	C245.610184,147.806015 250.250809,147.990570 254.583572,152.181702 
	C261.638245,159.005753 268.521912,166.006439 275.491058,172.919220 
	C277.009583,174.425461 278.584015,175.875366 280.008881,177.233231 
	C282.509460,176.673645 283.600342,174.865707 284.973083,173.499435 
	C298.063080,160.471283 311.106140,147.395996 324.166931,134.338531 
	C325.343414,133.162354 326.498718,131.957458 327.751617,130.866669 
	C331.960327,127.202385 336.515717,127.148293 339.723206,130.667130 
	C342.557007,133.776016 342.192383,138.673889 338.606537,142.280273 
	C324.995697,155.969086 311.320709,169.594131 297.670776,183.244080 
	C294.140533,186.774323 290.597260,190.291733 287.090851,193.845535 
	C283.599365,197.384232 279.839050,198.408386 275.273071,194.987671 
z"/>
</svg>