<svg version="1.1" id="Layer_1" xmlns="http://www.w3.org/2000/svg" xmlns:xlink="http://www.w3.org/1999/xlink" x="0px" y="0px"
	 width="100%" viewBox="0 0 688 576" enable-background="new 0 0 688 576" xml:space="preserve">
<path fill="#000000" opacity="1.000000" stroke="none" 
	d="
M233.567291,317.565887 
	C252.484879,298.105896 271.312439,279.057312 290.981781,260.860748 
	C293.556610,258.478699 294.887360,255.164139 297.464142,252.693573 
	C348.780487,203.492096 398.228760,152.409592 448.709717,102.365921 
	C458.575195,92.585892 471.340942,91.911270 481.927216,100.786285 
	C485.612305,103.875664 489.061829,107.316154 492.230225,110.936485 
	C498.040344,117.575279 497.829041,124.658104 491.698914,131.027832 
	C485.344788,137.630386 478.847778,144.100677 472.259949,150.470276 
	C469.988342,152.666641 469.340118,154.188080 471.583771,157.063629 
	C476.462433,163.316406 476.338043,172.322449 470.765808,178.173706 
	C458.135895,191.436035 445.057007,204.270782 432.161407,217.280121 
	C430.051514,219.408615 428.149384,221.805786 425.796234,223.617752 
	C420.454193,227.731201 420.105011,233.108337 421.549957,238.917847 
	C426.905914,260.452057 429.546021,282.587738 435.975891,303.881317 
	C434.519775,315.666016 443.783691,320.690399 450.558624,327.465118 
	C460.546021,337.452209 470.007385,347.964111 479.950989,357.996582 
	C505.276886,383.548737 530.676758,409.028564 556.195251,434.388153 
	C565.057373,443.195129 568.419800,453.571594 564.838257,465.351685 
	C561.456421,476.474792 553.512695,483.716736 541.910583,486.078278 
	C531.781128,488.140106 522.668274,485.571136 515.268555,478.252350 
	C497.148468,460.330536 479.140350,442.295319 461.124268,424.268616 
	C441.337555,404.470184 421.197632,385.002106 402.011719,364.636322 
	C393.636047,355.745575 384.276855,351.053711 372.469513,349.223450 
	C358.371307,347.038116 344.438629,343.769379 330.457458,340.858582 
	C327.787292,340.302643 325.255768,340.241241 322.568420,340.724487 
	C320.311157,341.130371 317.614716,341.675201 315.686615,340.837494 
	C310.290283,338.492920 307.430634,341.566101 304.160278,344.893921 
	C289.103943,360.214905 274.046448,375.538818 258.736420,390.604645 
	C251.962509,397.270447 244.438431,397.617188 236.583313,392.043365 
	C233.932205,390.162201 232.352631,390.371399 230.232666,392.545746 
	C223.834930,399.107605 217.343399,405.579834 210.807114,412.004272 
	C204.324539,418.375916 196.111618,418.384216 189.508652,412.084991 
	C186.857040,409.555328 184.264679,406.958008 181.741547,404.300171 
	C171.660080,393.680359 171.844681,379.469452 182.179840,369.096283 
	C199.218262,351.995209 216.269745,334.907166 233.567291,317.565887 
M452.889343,151.389740 
	C461.822693,142.424805 470.689789,133.392273 479.730743,124.537201 
	C482.354279,121.967659 483.331268,119.852936 479.983887,117.266533 
	C479.206207,116.665672 478.649475,115.784111 477.966125,115.055107 
	C469.126312,105.624809 464.093964,105.553642 455.082733,114.579666 
	C403.633942,166.112640 352.187622,217.648026 300.703094,269.145264 
	C265.862823,303.994171 230.956467,338.777008 196.089493,373.599274 
	C184.516083,385.157898 184.651993,388.360687 195.889114,400.125122 
	C199.372620,403.772125 201.345520,403.257721 204.612152,399.903656 
	C223.547104,380.462250 242.604324,361.137238 261.804901,341.957764 
	C296.534332,307.266510 331.422241,272.733917 366.190369,238.081284 
	C394.969910,209.397339 423.672180,180.635849 452.889343,151.389740 
M451.323822,348.196625 
	C449.351746,346.493561 448.035339,347.788879 446.668518,349.159302 
	C441.385803,354.455902 436.074982,359.724487 430.777527,365.006409 
	C425.561127,370.207611 425.605560,370.166199 430.820190,375.367096 
	C450.147552,394.643555 469.458099,413.936920 488.747009,433.251892 
	C500.034943,444.554993 511.238495,455.942474 522.539062,467.232849 
	C530.841858,475.528137 543.225403,475.215912 549.711243,466.649689 
	C555.025818,459.630432 553.719604,450.277008 546.284119,442.853363 
	C514.819824,411.438995 483.333923,380.046265 451.323822,348.196625 
M433.878906,330.651520 
	C409.968842,307.516327 388.546814,281.899017 363.803284,260.046875 
	C356.338745,267.248901 349.024048,274.244843 341.797699,281.330933 
	C340.370819,282.730103 340.619690,284.420837 342.162689,285.693817 
	C349.772491,291.972137 355.658722,299.905457 362.562317,306.856934 
	C375.116852,319.498444 387.784821,332.027191 400.348480,344.659698 
	C405.590759,349.930664 410.687225,355.346680 416.161621,361.019714 
	C422.802124,354.075897 428.678650,347.766998 434.745758,341.647003 
	C438.486847,337.873260 438.488647,334.521088 433.878906,330.651520 
M408.668945,282.842560 
	C413.892609,287.439117 416.499603,294.284882 421.924438,298.959625 
	C423.154388,297.074646 422.229828,295.733551 421.961670,294.333740 
	C418.400940,275.744873 411.403229,258.028534 408.269806,239.299591 
	C406.641144,229.564957 408.676361,221.959991 415.908447,214.993347 
	C430.523193,200.915085 444.608704,186.287811 458.937103,171.911545 
	C461.361389,169.479187 463.073334,167.086243 459.992889,164.103973 
	C458.190216,164.189026 457.420227,165.392212 456.518829,166.305008 
	C430.563934,192.586273 403.795319,218.061310 378.513885,245.009705 
	C374.837982,248.928009 374.551178,251.195511 378.442932,254.336578 
	C389.077118,262.919525 398.211090,273.057617 408.668945,282.842560 
M307.833862,324.721893 
	C320.154541,325.542511 331.661713,330.235138 343.744293,332.254913 
	C353.757599,333.928772 363.675415,336.173798 374.882812,338.415253 
	C361.140564,324.307037 348.276398,311.336884 335.708374,298.085846 
	C330.374512,292.462097 330.525238,292.201782 325.060638,297.710541 
	C318.514771,304.309296 312.329102,311.336426 305.271881,317.336365 
	C298.508423,323.086548 291.349915,328.312653 285.746796,335.321320 
	C283.667694,337.921997 282.596832,341.130524 280.127655,343.510345 
	C269.347809,353.900085 258.659729,364.385498 247.995834,374.894562 
	C246.381027,376.485901 244.336090,377.800781 243.597198,380.290283 
	C246.540054,384.500183 249.052765,381.821808 251.263199,379.676483 
	C258.786346,372.374878 266.506714,365.234741 273.519470,357.462433 
	C278.855530,351.548370 285.507965,346.706024 289.582825,339.817871 
	C293.787872,332.709717 299.871185,328.265717 307.833862,324.721893 
z"/>
<path fill="#000000" opacity="1.000000" stroke="none" 
	d="
M244.000000,108.237320 
	C204.510101,108.237679 165.520203,108.239037 126.530304,108.233604 
	C123.879005,108.233238 121.149910,108.543739 118.899849,106.624657 
	C116.914009,104.930939 115.271240,102.981934 116.035149,100.176056 
	C116.835388,97.236755 118.704262,95.197731 121.910912,94.817482 
	C123.062897,94.680878 124.240547,94.744202 125.406479,94.744156 
	C210.551086,94.741142 295.695709,94.740601 380.840302,94.743858 
	C382.005890,94.743904 383.188904,94.675888 384.333801,94.843933 
	C387.758820,95.346664 389.740570,97.543854 390.075806,100.823952 
	C390.393524,103.932846 388.766327,106.224770 385.866730,107.526268 
	C383.641937,108.524872 381.281830,108.227432 378.965240,108.228119 
	C334.143494,108.241364 289.321747,108.237259 244.000000,108.237320 
z"/>
<path fill="#000000" opacity="1.000000" stroke="none" 
	d="
M199.000488,242.742722 
	C210.999954,242.792023 222.499573,242.812622 233.998688,242.900162 
	C240.039032,242.946121 242.453323,245.125427 242.294327,250.193787 
	C242.133331,255.325684 239.841156,256.579498 233.567154,256.487946 
	C213.905060,256.200897 194.238052,256.270660 174.573486,256.128754 
	C142.581131,255.897873 110.589348,255.585297 78.596878,255.372620 
	C74.347916,255.344360 71.407112,253.841690 70.823891,249.387726 
	C70.334534,245.650589 73.430923,242.534470 78.045197,242.023315 
	C80.022476,241.804276 82.040649,241.924454 84.039909,241.938263 
	C122.193451,242.201843 160.346954,242.472580 199.000488,242.742722 
z"/>
<path fill="#000000" opacity="1.000000" stroke="none" 
	d="
M279.992371,162.884949 
	C284.318268,162.898636 288.148438,162.830536 291.972900,162.948334 
	C296.182739,163.078018 299.033569,165.209183 299.454987,169.468201 
	C299.816986,173.126465 296.273743,175.969055 291.588989,175.972977 
	C239.494888,176.016525 187.400726,176.028259 135.306610,175.999207 
	C130.649979,175.996613 127.294205,173.152069 127.218163,169.554260 
	C127.144218,166.055695 130.456161,163.249252 135.196960,162.934662 
	C137.352142,162.791641 139.522415,162.859222 141.685837,162.859512 
	C187.621948,162.865616 233.558060,162.875748 279.992371,162.884949 
z"/>
</svg>